<svg width="36" height="36" viewBox="0 0 36 36" fill="none" xmlns="http://www.w3.org/2000/svg">
<path d="M3.85031 24.08C3.70365 24.0533 3.55698 24.0733 3.41031 24.14C3.26365 24.2067 3.11698 24.2533 2.97031 24.28C2.82365 24.3067 2.67031 24.2533 2.51031 24.12C2.47031 24.0533 2.43031 23.9933 2.39031 23.94C2.35031 23.8733 2.32365 23.8133 2.31031 23.76C2.17698 22.6933 2.08365 21.6467 2.03031 20.62C1.97698 19.5933 1.91698 18.6867 1.85031 17.9C1.77031 16.9 1.69031 15.94 1.61031 15.02C1.53031 14.1 1.35031 13.1467 1.07031 12.16C1.12365 11.8 1.19698 11.48 1.29031 11.2C1.39698 10.9067 1.65698 10.66 2.07031 10.46C2.89698 10.3133 3.71698 10.2667 4.53031 10.32C5.35698 10.36 6.17698 10.4733 6.99031 10.66C7.93698 10.8733 8.61698 11.2467 9.03031 11.78C9.44365 12.3133 9.47698 13.02 9.13031 13.9C9.03698 14.1533 8.85031 14.4333 8.57031 14.74C8.29031 15.0467 8.09698 15.32 7.99031 15.56C8.00365 15.6667 8.06365 15.7467 8.17031 15.8C8.29031 15.8533 8.42365 15.8933 8.57031 15.92C8.71698 15.9333 8.83031 15.96 8.91031 16C9.28365 16.12 9.63698 16.2667 9.97031 16.44C10.317 16.6 10.637 16.8067 10.9303 17.06C11.317 17.3667 11.5836 17.6333 11.7303 17.86C11.8903 18.0867 11.957 18.4333 11.9303 18.9C11.8903 19.5533 11.6836 20.1333 11.3103 20.64C11.057 21.0133 10.7636 21.3533 10.4303 21.66C10.097 21.9533 9.72365 22.2 9.31031 22.4C9.03031 22.5467 8.75031 22.6867 8.47031 22.82C8.19031 22.94 7.90365 23.0533 7.61031 23.16C7.13031 23.3467 6.64365 23.5267 6.15031 23.7C5.65698 23.86 5.15698 24.0333 4.65031 24.22L3.85031 24.08ZM3.71031 22.94C3.79031 22.94 3.90365 22.9467 4.05031 22.96C4.19698 22.96 4.31698 22.9533 4.41031 22.94C5.07698 22.7533 5.73031 22.54 6.37031 22.3C7.02365 22.06 7.65698 21.7933 8.27031 21.5C8.45698 21.42 8.63031 21.3133 8.79031 21.18C8.96365 21.0467 9.13698 20.9133 9.31031 20.78C9.63031 20.5267 9.89698 20.22 10.1103 19.86C10.3236 19.4867 10.4103 19.1067 10.3703 18.72C10.3303 18.32 10.0903 17.9533 9.65031 17.62C9.54365 17.5267 9.35031 17.3933 9.07031 17.22C8.80365 17.0467 8.48365 16.9067 8.11031 16.8C7.73698 16.6933 7.33698 16.7 6.91031 16.82L4.79031 17.6C4.53698 17.52 4.37698 17.4467 4.31031 17.38C4.25698 17.3133 4.23698 17.1133 4.25031 16.78C4.33031 16.7 4.41031 16.6067 4.49031 16.5C4.57031 16.3933 4.67031 16.3067 4.79031 16.24C4.92365 16.1333 5.06365 16.04 5.21031 15.96C5.37031 15.8667 5.52365 15.7867 5.67031 15.72C6.07031 15.5467 6.43698 15.3133 6.77031 15.02C7.10365 14.7267 7.37698 14.4 7.59031 14.04C7.79031 13.72 7.90365 13.44 7.93031 13.2C7.97031 12.96 7.87698 12.6667 7.65031 12.32C7.58365 12.2533 7.51031 12.1933 7.43031 12.14C7.35031 12.0733 7.26365 12.02 7.17031 11.98C6.87698 11.86 6.56365 11.7867 6.23031 11.76C5.75031 11.72 5.24365 11.6933 4.71031 11.68C4.19031 11.6667 3.69031 11.6933 3.21031 11.76C3.11698 11.7733 3.01698 11.8067 2.91031 11.86C2.81698 11.9133 2.71698 11.96 2.61031 12C2.54365 12.3733 2.53698 12.74 2.59031 13.1C2.64365 13.46 2.69698 13.76 2.75031 14C2.85698 14.4533 2.93031 15.0067 2.97031 15.66C3.01031 16.3 3.05031 16.92 3.09031 17.52C3.14365 18.1333 3.20365 18.8667 3.27031 19.72C3.33698 20.5733 3.40365 21.4467 3.47031 22.34C3.47031 22.3933 3.49698 22.4867 3.55031 22.62C3.61698 22.74 3.67031 22.8467 3.71031 22.94ZM16.7066 25.18C16.5999 25.22 16.4866 25.2133 16.3666 25.16C16.2466 25.12 16.1599 25.0733 16.1066 25.02C15.9066 24.7267 15.6999 24.4333 15.4866 24.14C15.2866 23.86 15.1199 23.56 14.9866 23.24C14.7199 22.6133 14.5399 21.9667 14.4466 21.3C14.3532 20.62 14.2932 19.94 14.2666 19.26C14.2132 17.7267 14.1666 16.2 14.1266 14.68C14.0999 13.1467 14.0666 11.6133 14.0266 10.08C13.9866 9.6 14.2132 9.36 14.7066 9.36C14.9332 9.36 15.1199 9.45333 15.2666 9.64C15.4266 9.82667 15.5066 10.04 15.5066 10.28L15.4266 14.62C15.4932 15.62 15.5466 16.62 15.5866 17.62C15.6266 18.62 15.6932 19.62 15.7866 20.62C15.8399 21.2467 15.9332 21.88 16.0666 22.52C16.1999 23.1467 16.4466 23.7333 16.8066 24.28C16.8999 24.3867 16.9266 24.5267 16.8866 24.7C16.8599 24.8733 16.7999 25.0333 16.7066 25.18ZM21.6094 23.82C21.236 23.82 20.8627 23.7533 20.4894 23.62C20.1294 23.4867 19.836 23.3 19.6094 23.06C19.316 22.6867 19.0827 22.3733 18.9094 22.12C18.736 21.8533 18.6094 21.5867 18.5294 21.32C18.4494 21.04 18.4094 20.6933 18.4094 20.28C18.4894 19.44 18.7494 18.6933 19.1894 18.04C19.6294 17.3867 20.1427 16.7933 20.7294 16.26C20.956 16.0333 21.2294 15.9133 21.5494 15.9C21.8827 15.8733 22.1827 15.92 22.4494 16.04C23.076 16.28 23.5827 16.54 23.9694 16.82C24.356 17.1 24.656 17.44 24.8694 17.84C25.096 18.2267 25.256 18.7133 25.3494 19.3C25.2027 20.26 24.896 21.1067 24.4294 21.84C23.976 22.5733 23.336 23.1667 22.5094 23.62C22.2827 23.7533 21.9827 23.82 21.6094 23.82ZM20.9894 22.44C21.176 22.4933 21.3694 22.5267 21.5694 22.54C21.7694 22.5533 21.956 22.52 22.1294 22.44C22.476 22.2133 22.756 22.0067 22.9694 21.82C23.1827 21.6333 23.356 21.4133 23.4894 21.16C23.636 20.9067 23.756 20.58 23.8494 20.18C23.8627 20.1 23.8694 19.9733 23.8694 19.8C23.8827 19.6133 23.8894 19.4267 23.8894 19.24C23.8894 19.0533 23.876 18.9267 23.8494 18.86C23.676 18.4467 23.4227 18.0933 23.0894 17.8C22.7694 17.5067 22.4294 17.32 22.0694 17.24C21.7227 17.16 21.416 17.2333 21.1494 17.46C20.8427 17.6867 20.6227 17.92 20.4894 18.16C20.3694 18.4 20.276 18.6533 20.2094 18.92C20.156 19.1733 20.056 19.46 19.9094 19.78C19.8694 20.0733 19.8627 20.3933 19.8894 20.74C19.9294 21.0867 20.036 21.4133 20.2094 21.72C20.3827 22.0267 20.6427 22.2667 20.9894 22.44ZM30.2772 33.06C29.6105 33.06 28.9905 32.8733 28.4172 32.5C27.8439 32.14 27.3772 31.6733 27.0172 31.1C26.6705 30.54 26.4972 29.96 26.4972 29.36C26.4972 28.8933 26.5905 28.4267 26.7772 27.96C26.9639 27.5067 27.2039 27.06 27.4972 26.62C27.6172 26.4467 27.7639 26.3733 27.9372 26.4C28.1239 26.4267 28.2639 26.5133 28.3572 26.66C28.4639 26.8067 28.4439 26.9733 28.2972 27.16C28.0439 27.4933 27.8772 27.84 27.7972 28.2C27.7172 28.56 27.6772 28.9333 27.6772 29.32C27.6639 29.76 27.7572 30.16 27.9572 30.52C28.1705 30.8933 28.4439 31.2 28.7772 31.44C29.1239 31.6933 29.4905 31.86 29.8772 31.94C30.2639 32.0333 30.6372 32.02 30.9972 31.9C31.3705 31.7933 31.6839 31.5533 31.9372 31.18C32.2972 30.66 32.5905 30.1867 32.8172 29.76C33.0439 29.3333 33.2105 28.8867 33.3172 28.42C33.4372 27.9667 33.4972 27.4267 33.4972 26.8C33.5105 26.2133 33.5172 25.7867 33.5172 25.52C33.5305 25.2533 33.5372 25.0667 33.5372 24.96C33.5505 24.8667 33.5572 24.7867 33.5572 24.72C33.5572 24.6533 33.5505 24.5267 33.5372 24.34C33.5372 24.1533 33.5239 23.8333 33.4972 23.38C33.4572 22.86 33.4039 22.2867 33.3372 21.66C33.2705 21.0333 33.2039 20.4333 33.1372 19.86C33.0039 20.0467 32.8239 20.26 32.5972 20.5C32.3839 20.7267 32.2172 20.9267 32.0972 21.1C31.7639 21.5533 31.3639 21.9 30.8972 22.14C30.4439 22.38 29.9505 22.54 29.4172 22.62C28.8305 22.6867 28.3172 22.58 27.8772 22.3C27.4505 22.02 27.1105 21.6467 26.8572 21.18C26.6172 20.7 26.4772 20.2067 26.4372 19.7C26.3305 18.18 26.7505 16.8067 27.6972 15.58C28.0439 15.1533 28.4105 14.8467 28.7972 14.66C29.1972 14.46 29.5972 14.36 29.9972 14.36C30.5839 14.36 31.0905 14.4933 31.5172 14.76C31.9572 15.0267 32.3772 15.36 32.7772 15.76C32.9905 15.3867 33.2572 15.2 33.5772 15.2C33.9239 15.2 34.1972 15.3467 34.3972 15.64C34.6105 15.9333 34.6905 16.28 34.6372 16.68C34.6372 17.0133 34.6105 17.26 34.5572 17.42C34.5039 17.58 34.4505 17.7467 34.3972 17.92C34.3572 18.0933 34.3372 18.3733 34.3372 18.76C34.3372 19.0267 34.3505 19.3 34.3772 19.58C34.4172 19.86 34.4505 20.1333 34.4772 20.4C34.5572 21.0267 34.6239 21.5467 34.6772 21.96C34.7439 22.36 34.7972 22.7133 34.8372 23.02C34.8772 23.3133 34.9039 23.6067 34.9172 23.9C34.9305 24.18 34.9372 24.5 34.9372 24.86C34.9372 25.2333 34.9305 25.6933 34.9172 26.24C34.9172 26.9867 34.8572 27.64 34.7372 28.2C34.6305 28.7733 34.4505 29.32 34.1972 29.84C33.9439 30.36 33.5972 30.9267 33.1572 31.54C32.7972 32.0333 32.3639 32.4067 31.8572 32.66C31.3505 32.9267 30.8239 33.06 30.2772 33.06ZM29.3772 21.46C29.8572 21.46 30.2772 21.2667 30.6372 20.88C30.9572 20.52 31.2639 20.14 31.5572 19.74C31.8639 19.34 32.1705 18.9533 32.4772 18.58C32.7172 18.26 32.8372 17.9133 32.8372 17.54C32.8372 17.2733 32.7772 16.9733 32.6572 16.64C32.4039 16.7733 32.1639 16.84 31.9372 16.84C31.6972 16.84 31.5105 16.7867 31.3772 16.68C31.2439 16.56 31.1305 16.4267 31.0372 16.28C30.9439 16.1333 30.8439 16.0067 30.7372 15.9C30.6305 15.78 30.4905 15.72 30.3172 15.72C30.1305 15.72 29.9039 15.7933 29.6372 15.94C28.9172 16.3267 28.4372 16.8467 28.1972 17.5C27.9572 18.14 27.8439 18.8467 27.8572 19.62C27.8572 20.2067 27.9839 20.66 28.2372 20.98C28.5039 21.3 28.8839 21.46 29.3772 21.46Z" fill="#FF0000"/>
</svg>
