<svg width="31" height="50" viewBox="0 0 31 50" fill="none" xmlns="http://www.w3.org/2000/svg">
<path d="M4.78707 38.1933L2.18827 10.0396C2.11172 9.2103 3.02303 8.65629 3.72399 9.10595L26.6692 23.8255C27.3884 24.2869 27.235 25.3795 26.4166 25.625L19.8137 27.6059C19.1644 27.8007 18.8929 28.5716 19.277 29.1302L28.9629 43.2188C29.2641 43.6568 29.1699 44.2539 28.7486 44.578L23.8782 48.3244C23.4085 48.6858 22.7292 48.5616 22.4177 48.0573L13.2085 33.1472C12.8559 32.5762 12.052 32.5078 11.6079 33.011L6.53267 38.763C5.95264 39.4203 4.86765 39.0662 4.78707 38.1933Z" fill="white" fill-opacity="0.26"/>
<path d="M26.5975 41.4203C25.2032 39.0401 23.2496 37.7548 21.4525 34.9208C19.9593 32.5662 19.7764 31.6993 18.4595 29.6923C17.8909 28.9188 17.9782 27.4419 19.1769 26.7887C19.2887 26.7287 19.4057 26.6799 19.5248 26.6426C21.9126 25.8638 24.3373 25.2569 26.1517 24.7423C26.2424 24.7464 26.2076 24.5849 26.1425 24.6464C26.1344 24.6424 26.1264 24.6384 26.1183 24.6344C24.5753 23.8729 24.7372 23.2864 22.6237 22.0839C20.5103 20.8814 19.3125 20.0229 17.6271 18.7173C15.9416 17.4116 10.5371 13.7531 8.41497 12.6673C6.62362 11.7509 4.87646 10.3255 3.58246 9.32657C3.4057 9.17974 3.17737 9.13131 2.97657 9.17264C2.56607 9.25688 2.33356 9.58816 2.27337 9.85791C2.24594 9.97397 2.21945 10.0363 2.18154 10.0402C2.18151 10.0402 2.18149 10.0402 2.18146 10.0402C2.1377 10.0454 2.07193 9.95002 2.09374 9.76417C2.11158 9.21486 2.92326 8.42562 3.84606 8.91567C4.24903 9.12824 4.68947 9.35283 5.16119 9.58279C7.56931 10.7567 7.62777 11.2041 10.7386 13.0091C13.8493 14.8141 15.8394 15.7097 19.2858 18.167C22.3303 20.3378 23.6888 20.4299 27.2443 22.929C28.2775 23.539 28.5202 25.3437 27.3464 26.1869C27.1369 26.3404 26.9045 26.4434 26.6793 26.5007C23.4296 27.2152 21.9449 27.872 20.1295 28.6584C20.1973 28.7175 20.4139 28.6253 20.3486 28.3935C20.9463 29.1145 21.6173 29.9686 22.4126 31.0766C25.0177 34.7058 27.8324 39.2587 29.9472 42.5421C30.6295 43.5352 30.292 44.8991 29.4531 45.4939C28.911 45.8939 28.4265 46.2597 28.0154 46.5836C26.9939 47.3884 25.8492 48.2985 24.6095 49.275C23.6698 50.054 22.0448 49.8148 21.3835 48.6961C20.1423 46.7207 18.8135 44.5652 17.4982 42.3189C15.9535 39.681 14.0525 36.7566 12.1808 33.7819C12.2463 33.9013 12.4264 33.9238 12.5208 33.8166C11.3936 35.0976 10.2577 36.3571 9.12628 37.545C8.55172 38.1482 7.9424 38.789 7.31294 39.4514C6.25694 40.7435 3.87367 39.9501 3.83605 38.281C3.57808 33.6366 3.30313 28.7118 3.18906 26.0434C3.0324 22.3786 2.99094 21.4856 2.55675 17.9842C2.30717 15.9715 2.11012 13.1853 2.12594 10.815C2.13391 9.62218 2.32165 9.87499 2.50948 11.0576C2.78413 12.7869 2.83977 14.2221 3.12625 15.0998C3.69877 16.8535 3.92524 17.6005 3.897 19.8838C3.86878 22.1669 4.50566 23.1828 4.56536 24.5067C4.62503 25.8307 4.30539 25.8383 5.16883 32.5185C5.44662 34.6676 5.67661 36.5051 5.87056 38.0933C5.88358 38.0038 5.76806 37.9278 5.66831 38.0003C7.04057 36.3611 8.0705 35.1471 8.90584 34.155C9.35679 33.6194 9.96507 32.9438 10.6656 32.1796C11.5228 31.1283 13.4943 31.191 14.2429 32.5083C15.4553 34.5776 16.8439 36.9505 18.1371 38.9358C19.487 41.0081 21.5778 44.4092 23.4561 47.416C23.3907 47.3023 23.2315 47.272 23.1274 47.3483C24.4958 46.2767 25.6943 45.3218 26.4968 44.6407C27.0701 44.1541 27.5278 43.7885 27.9177 43.4978C27.7373 43.6573 27.8152 43.8785 27.9237 43.9333C27.5672 43.2494 27.2903 42.6031 26.5975 41.4203Z" fill="black"/>
<path d="M4.78707 32.1933L2.18827 4.03957C2.11172 3.2103 3.02303 2.65629 3.72399 3.10595L26.6692 17.8255C27.3884 18.2869 27.235 19.3795 26.4166 19.625L19.8137 21.6059C19.1644 21.8007 18.8929 22.5716 19.277 23.1302L28.9629 37.2188C29.2641 37.6568 29.1699 38.2539 28.7486 38.578L23.8782 42.3244C23.4085 42.6858 22.7292 42.5616 22.4177 42.0573L13.2085 27.1472C12.8559 26.5762 12.052 26.5078 11.6079 27.011L6.53267 32.763C5.95264 33.4203 4.86765 33.0662 4.78707 32.1933Z" fill="#FF0000"/>
<path d="M26.5975 35.4203C25.2032 33.0401 23.2496 31.7548 21.4525 28.9208C19.9593 26.5662 19.7764 25.6993 18.4595 23.6923C17.8909 22.9188 17.9782 21.4419 19.1769 20.7887C19.2887 20.7287 19.4057 20.6799 19.5248 20.6426C21.9126 19.8638 24.3373 19.2569 26.1517 18.7423C26.2424 18.7464 26.2076 18.5849 26.1425 18.6464C26.1344 18.6424 26.1264 18.6384 26.1183 18.6344C24.5753 17.8729 24.7372 17.2864 22.6237 16.0839C20.5103 14.8814 19.3125 14.0229 17.6271 12.7173C15.9416 11.4116 10.5371 7.75306 8.41497 6.66735C6.62362 5.75087 4.87646 4.32551 3.58246 3.32657C3.4057 3.17974 3.17737 3.13131 2.97657 3.17264C2.56607 3.25688 2.33356 3.58816 2.27337 3.85791C2.24594 3.97397 2.21945 4.0363 2.18154 4.04019C2.18151 4.04019 2.18149 4.04019 2.18146 4.04019C2.1377 4.04544 2.07193 3.95002 2.09374 3.76417C2.11158 3.21486 2.92326 2.42562 3.84606 2.91567C4.24903 3.12824 4.68947 3.35283 5.16119 3.58279C7.56931 4.75672 7.62777 5.20409 10.7386 7.0091C13.8493 8.8141 15.8394 9.70975 19.2858 12.167C22.3303 14.3378 23.6888 14.4299 27.2443 16.929C28.2775 17.539 28.5202 19.3437 27.3464 20.1869C27.1369 20.3404 26.9045 20.4434 26.6793 20.5007C23.4296 21.2152 21.9449 21.872 20.1295 22.6584C20.1973 22.7175 20.4139 22.6253 20.3486 22.3935C20.9463 23.1145 21.6173 23.9686 22.4126 25.0766C25.0177 28.7058 27.8324 33.2587 29.9472 36.5421C30.6295 37.5352 30.292 38.8991 29.4531 39.4939C28.911 39.8939 28.4265 40.2597 28.0154 40.5836C26.9939 41.3884 25.8492 42.2985 24.6095 43.275C23.6698 44.054 22.0448 43.8148 21.3835 42.6961C20.1423 40.7207 18.8135 38.5652 17.4982 36.3189C15.9535 33.681 14.0525 30.7566 12.1808 27.7819C12.2463 27.9013 12.4264 27.9238 12.5208 27.8166C11.3936 29.0976 10.2577 30.3571 9.12628 31.545C8.55172 32.1482 7.9424 32.789 7.31294 33.4514C6.25694 34.7435 3.87367 33.9501 3.83605 32.281C3.57808 27.6366 3.30313 22.7118 3.18906 20.0434C3.0324 16.3786 2.99094 15.4856 2.55675 11.9842C2.30717 9.97149 2.11012 7.1853 2.12594 4.81505C2.13391 3.62218 2.32165 3.87499 2.50948 5.05757C2.78413 6.78688 2.83977 8.22214 3.12625 9.0998C3.69877 10.8535 3.92524 11.6005 3.897 13.8838C3.86878 16.1669 4.50566 17.1828 4.56536 18.5067C4.62503 19.8307 4.30539 19.8383 5.16883 26.5185C5.44662 28.6676 5.67661 30.5051 5.87056 32.0933C5.88358 32.0038 5.76806 31.9278 5.66831 32.0003C7.04057 30.3611 8.0705 29.1471 8.90584 28.155C9.35679 27.6194 9.96507 26.9438 10.6656 26.1796C11.5228 25.1283 13.4943 25.191 14.2429 26.5083C15.4553 28.5776 16.8439 30.9505 18.1371 32.9358C19.487 35.0081 21.5778 38.4092 23.4561 41.416C23.3907 41.3023 23.2315 41.272 23.1274 41.3483C24.4958 40.2767 25.6943 39.3218 26.4968 38.6407C27.0701 38.1541 27.5278 37.7885 27.9177 37.4978C27.7373 37.6573 27.8152 37.8785 27.9237 37.9333C27.5672 37.2494 27.2903 36.6031 26.5975 35.4203Z" fill="black"/>
<path d="M11.7184 20.6237C9.80798 24.4945 8.44335 27.7068 6.31488 32.1516L5.71639 31.7958C6.02208 31.3693 6.33873 30.9306 6.6683 30.4776C10.0932 25.7706 10.6912 25.1269 14.5666 19.7023C14.6475 19.5891 14.7284 19.4759 14.8093 19.3627L15.2193 19.5843C14.369 21.8155 13.5108 24.0334 12.7152 26.0828L12.2998 25.8856C13.0163 24.6408 13.6955 23.463 14.3114 22.3922L14.7163 21.6818L14.7172 22.5C14.7115 24.5416 14.7109 26.2437 14.7283 27.392C14.7315 27.6078 14.7338 27.8097 14.7353 28L14.2895 27.8948C14.9094 26.6303 15.2875 25.9502 15.8324 24.9162L16.1866 25.017C16.0921 25.8568 15.9838 26.9006 15.847 28.5351C15.7882 29.2375 15.7322 29.8935 15.6781 30.5162L15.3325 30.4372C15.8763 28.9698 16.3538 27.701 16.8355 26.4383L17.1756 26.5C17.168 27.8366 17.1542 29.169 17.136 30.6954C17.1302 31.1774 17.1246 31.79 17.1192 32.5L16.8934 32.4467C17.3317 31.5862 17.8502 30.5643 18.411 29.4555L18.567 29.1425L18.5991 29.491C18.7478 31.2133 18.9153 33.1218 19.0828 34.9925L18.9308 34.9539C19.62 33.9233 20.2989 32.9055 20.9312 31.9542L21.0823 31.7269L21.0826 32C21.0853 33.9634 21.0932 35.6872 21.1084 36.8432C21.1134 37.2245 21.1172 37.6107 21.1198 38L20.9041 37.9281C21.3952 37.264 21.8984 36.5919 22.4011 35.9259L22.623 35.6291L22.6236 36C22.6188 37.5577 22.6026 39.098 22.5859 40.5L22.4264 40.4558C22.988 39.5446 23.5084 38.7026 23.9559 37.9735L24.0513 37.8141L24.0515 38C24.0495 38.1966 24.0478 38.3862 24.0463 38.568C24.0394 39.4478 24.0299 40.1403 24.02 40.6712C24.0158 40.896 24.0071 40.9999 23.9984 41C23.9984 41 23.9984 41 23.9984 41C23.9876 40.9999 23.977 40.8388 23.9757 40.5498C23.9724 39.8566 23.9665 38.9941 23.9567 38L24.0372 38.0223C23.5929 38.7796 23.0986 39.6264 22.5682 40.5409L22.4201 40.7872L22.4204 40.5C22.4179 40.3314 22.4153 40.1608 22.4126 39.9884C22.3852 38.2518 22.3795 37.0968 22.381 36L22.5952 36.0714C22.116 36.7084 21.6522 37.3185 21.0877 38.0658L20.8898 38.3287L20.8904 38C20.8945 36.7979 20.8959 35.3156 20.8828 33.128C20.8805 32.743 20.878 32.3675 20.8755 32L21.1036 32.0691C20.4013 33.1385 19.7543 34.1274 19.1277 35.0851L18.8858 35.4467L18.8472 35.0139C18.6635 33.1697 18.4895 31.4229 18.3088 29.5174L18.6717 29.5859C18.2034 30.5317 17.7114 31.5197 17.1755 32.5878L16.8037 32.5C16.8053 31.3584 16.8101 30.1335 16.8189 28.7879C16.8244 27.9602 16.8266 27.2044 16.8265 26.5L17.1624 26.5609C16.5971 28.069 16.1378 29.3301 15.6889 30.5708L15.2991 30.4817C15.4335 28.7842 15.5601 27.124 15.7474 24.977L16.2269 25.1134C15.7847 26.0058 15.2925 26.9903 14.7252 28.1126L14.2482 28C14.2533 26.8335 14.2632 25.532 14.2796 24.0539C14.2856 23.5114 14.2907 22.9943 14.295 22.5L14.678 22.6017C13.9037 23.9298 13.2456 25.0706 12.662 26.0926L12.3258 25.933C13.311 23.3693 13.9927 21.5072 14.762 19.4085L15.207 19.649C13.8472 21.6021 12.3234 23.7894 9.89186 27.1861C8.73769 28.7984 7.52081 30.4886 6.28218 32.2032L5.68671 31.8492C7.91667 27.2365 10.2474 22.4609 12.2384 18.3741L12.723 18.6858C10.5677 21.248 8.6821 23.4928 7.31961 25.1329C6.65269 25.9358 5.94765 26.785 5.20929 27.6744L4.77332 27.3489C7.11653 23.8199 9.84725 19.7071 12.7633 15.3422L13.2168 15.6842C12.0117 17.0992 10.7799 18.5429 9.53189 20.0017C8.00054 21.7918 6.379 23.6988 4.70384 25.6733L4.26513 25.3719C6.19847 21.8196 8.22634 18.0794 10.2508 14.3641L10.7319 14.6637C8.88525 17.2822 7.04218 19.8867 5.25559 22.3904C5.07706 22.6406 4.8962 22.8941 4.71323 23.1505L4.26479 22.8869C5.82077 19.6928 7.57959 16.0805 9.31629 12.5142L9.66061 12.728C7.93061 14.9192 6.21619 17.0905 4.6285 19.1004L4.35221 18.931C5.71789 16.0436 6.94792 13.4449 7.89387 11.4505L8.0953 11.5681C7.89037 11.8512 7.69521 12.1208 7.51062 12.3756C6.76691 13.4023 6.13534 14.2743 5.57274 15.052L5.4114 14.9882C5.81277 12.1106 6.06071 10.2923 6.42703 7.49027L6.57063 7.52076C6.31236 8.40768 6.02552 9.39656 5.68984 10.5565C5.50215 11.205 5.29964 11.9002 5.08639 12.6279L4.90996 12.6025C4.90797 10.2511 4.91697 7.57084 4.93944 5L5.05258 5.03005C4.58866 5.82569 4.1302 6.60828 3.68712 7.36025C2.64095 9.13575 2.83945 8.71139 3.85261 6.90151C4.23265 6.22264 4.59749 5.57625 4.94233 4.96704L5.06614 4.7498L5.06642 5C5.07468 7.02902 5.07392 8.70334 5.10941 9.86524C5.14187 10.9276 5.16752 11.7821 5.18505 12.6025L4.82246 12.5503C5.22031 11.0817 5.61181 9.73362 6.31725 7.44628L6.68881 7.52518C6.67283 7.63404 6.65649 7.74498 6.63979 7.85808C6.13762 11.2581 5.98172 13.106 5.73923 15.0319L5.3036 14.8597C5.46784 14.6262 5.63453 14.3921 5.80731 14.1534C6.47864 13.226 6.8251 12.779 7.83774 11.3841L8.1807 11.5843C7.53597 12.9386 6.52634 15.0906 4.68164 19.0848L4.34207 18.8766C4.76677 18.3287 5.22196 17.7409 5.71033 17.1097C7.01403 15.4246 8.21076 13.8787 9.31266 12.4561L9.71428 12.7055C7.63505 17.0782 6.03612 20.4325 4.75316 23.1217L4.27051 22.838C5.41109 21.2115 6.36418 19.8533 7.19514 18.6683C7.9842 17.5431 9.04726 16.0428 10.262 14.332L10.7557 14.6395C8.9559 17.9173 6.75429 21.9147 4.73141 25.6262L4.29916 25.3293C4.97088 24.5385 5.62855 23.7624 6.26074 23.0137C7.95953 21.002 10.306 18.2375 12.7856 15.3178L13.2341 15.6561C10.4318 19.8635 7.43061 24.3665 5.24549 27.6637L4.77334 27.3111C5.57503 26.3437 6.28189 25.4886 6.85646 24.79C9.90718 21.0806 10.5261 20.4148 12.311 18.3425L12.7217 18.6067C12.439 19.1703 12.1144 19.8214 11.7184 20.6237Z" fill="black"/>
<path d="M22.7874 15.278C22.9291 15.0927 23.0709 14.9073 23.2126 14.722C22.9271 14.5082 22.6415 14.2944 22.356 14.0807C17.2161 10.2328 12.0762 6.38492 6.93637 2.53705C6.65082 2.32328 6.36528 2.10951 6.07973 1.89574C6.02658 1.96525 5.97342 2.03475 5.92027 2.10426C6.20139 2.32382 6.48251 2.54338 6.76363 2.76295C11.8238 6.71508 16.8839 10.6672 21.944 14.6193C22.2252 14.8389 22.5063 15.0585 22.7874 15.278Z" fill="black"/>
<path d="M6 33.5L7 37L7.5 32L8.5 36L9.5 30.5L10.5 33.5V29.5L12 32V27.5L13 32.5L14 30V33.5L15.5 31.5V36.5L17 34.5V38.5L19 37L18 40.5L20.5 39.5L20 42.5L22 40.5L21.5 45L24 41.5L24.5 47L25.5 41.5L26 45.5L27 40.5L27.5 44L29 39L29.5 43.5L30 37.5V43.5M22.5 47L23 43" stroke="black" stroke-width="0.7"/>
<path d="M23.5 47.5C23.5 47.1 23.5 44 23.5 42.5L25 46.5" stroke="black" stroke-width="0.7"/>
<path d="M6 38L5.5 33.5" stroke="black" stroke-width="0.7"/>
<path d="M27.5 18.5V25L26.5 20L26 22.5L25.5 20.5L24.5 21.5L25.5 25L23.5 21.5V26L22 21L21.5 24.5L22 26.5L23.5 20.5L24.5 26L20 22" stroke="black" stroke-width="0.7"/>
</svg>
