<svg width="36" height="36" viewBox="0 0 36 36" fill="none" xmlns="http://www.w3.org/2000/svg">
<path d="M11.332 15.3328V24.6661M16.6654 19.3328V24.6661M16.6654 19.3328C16.6654 18.8075 16.7688 18.2873 16.9698 17.802C17.1709 17.3167 17.4655 16.8758 17.8369 16.5043C18.2084 16.1329 18.6493 15.8383 19.1346 15.6372C19.6199 15.4362 20.1401 15.3328 20.6654 15.3328C21.1907 15.3328 21.7108 15.4362 22.1961 15.6372C22.6814 15.8383 23.1224 16.1329 23.4938 16.5043C23.8652 16.8758 24.1599 17.3167 24.3609 17.802C24.5619 18.2873 24.6654 18.8075 24.6654 19.3328V24.6661M16.6654 19.3328V15.3328" stroke="#FF0000" stroke-width="2" stroke-linecap="round" stroke-linejoin="round"/>
<path d="M11.3401 11.3328H11.3281" stroke="#FF0000" stroke-width="2.66667" stroke-linecap="round" stroke-linejoin="round"/>
<path d="M5.33203 17.9994C5.33203 12.0288 5.33203 9.0421 7.1867 7.18743C9.04136 5.33276 12.0267 5.33276 17.9987 5.33276C23.9694 5.33276 26.956 5.33276 28.8107 7.18743C30.6654 9.0421 30.6654 12.0274 30.6654 17.9994C30.6654 23.9701 30.6654 26.9568 28.8107 28.8114C26.956 30.6661 23.9707 30.6661 17.9987 30.6661C12.028 30.6661 9.04136 30.6661 7.1867 28.8114C5.33203 26.9568 5.33203 23.9714 5.33203 17.9994Z" stroke="#FF0000" stroke-width="2" stroke-linejoin="round"/>
</svg>
