<svg width="294" height="87" viewBox="0 0 294 87" fill="none" xmlns="http://www.w3.org/2000/svg">
<path d="M2.4375 12.5625V11.8125C2.4375 11.1875 2.65625 10.75 3.09375 10.5C3.59375 10.25 4.15625 10.125 4.78125 10.125C5.28125 10.125 5.75 10.1875 6.1875 10.3125C6.625 10.375 6.96875 10.7187 7.21875 11.3438C7.40625 12.2812 7.59375 13.5938 7.78125 15.2812C7.96875 16.9062 8.1875 18.7188 8.4375 20.7188C8.6875 22.7188 8.9375 24.8438 9.1875 27.0938C9.5 29.2812 9.78125 31.375 10.0312 33.375C10.3438 35.3125 10.6562 37.0625 10.9688 38.625C11.2812 40.1875 11.625 41.375 12 42.1875C11.8125 36.1875 12 31 12.5625 26.625C13.125 22.1875 14.1875 18.5938 15.75 15.8438C17.375 13.0312 19.5625 11.0937 22.3125 10.0312C25.125 8.90625 28.625 8.65625 32.8125 9.28125C34.75 9.28125 35.7188 10.3125 35.7188 12.375C35.7188 13.1875 35.1875 13.75 34.125 14.0625C33.0625 14.3125 31.875 14.5 30.5625 14.625C29.25 14.6875 27.9688 14.7813 26.7188 14.9062C25.4688 15.0312 24.5625 15.3438 24 15.8438C21.75 17.0938 20.1562 19.0312 19.2188 21.6562C18.3438 24.2812 17.7188 27.375 17.3438 30.9375C16.9688 34.5 16.6875 38.4062 16.5 42.6562C16.375 46.8438 15.9688 51.1562 15.2812 55.5938C15.2812 56.2188 15.0312 56.6875 14.5312 57C14.0312 57.3125 13.4062 57.4688 12.6562 57.4688C11.9688 57.4688 11.2812 57.3125 10.5938 57C9.96875 56.6875 9.46875 56.2188 9.09375 55.5938L2.4375 12.5625ZM36.0863 44.9062C35.6488 42.0312 35.43 39.25 35.43 36.5625C35.43 33.8125 35.5863 31.0312 35.8988 28.2188C36.2738 25.4062 36.7738 22.5 37.3988 19.5C38.0863 16.4375 38.8675 13.1562 39.7425 9.65625C39.7425 8.96875 39.93 8.34375 40.305 7.78125C40.68 7.15625 41.18 6.65625 41.805 6.28125C42.43 5.84375 43.0863 5.5 43.7738 5.25C44.4613 5 45.1175 4.875 45.7425 4.875C47.1175 4.875 48.3675 5.3125 49.4925 6.1875C50.6175 7.0625 51.6175 8.125 52.4925 9.375C53.43 10.625 54.2113 11.9688 54.8363 13.4062C55.5238 14.7813 56.0863 15.9687 56.5238 16.9688C57.0238 19.1562 57.3675 21.6562 57.555 24.4688C57.805 27.2188 57.8363 30.0312 57.6488 32.9062C57.4613 35.7812 57.0238 38.625 56.3363 41.4375C55.6488 44.1875 54.68 46.7188 53.43 49.0312C52.18 51.3438 50.555 53.2812 48.555 54.8438C46.6175 56.4062 44.305 57.375 41.6175 57.75C40.18 57.75 39.0863 57.2812 38.3363 56.3438C37.5863 55.3438 37.0238 54.1562 36.6488 52.7812C36.3363 51.3438 36.1488 49.9062 36.0863 48.4688C36.0863 47.0312 36.0863 45.8438 36.0863 44.9062ZM40.8675 44.625C40.8675 45.25 40.8675 45.8438 40.8675 46.4062C40.93 46.9688 40.9925 47.5312 41.055 48.0938C41.18 48.5938 41.305 49.1562 41.43 49.7812C41.6175 50.3438 41.8363 51 42.0863 51.75H42.6488C44.1488 51.75 45.43 51.25 46.4925 50.25C47.555 49.25 48.4613 47.9688 49.2113 46.4062C49.9613 44.7812 50.5863 43 51.0863 41.0625C51.5863 39.0625 51.9613 37.125 52.2113 35.25C52.5238 33.3125 52.7113 31.5312 52.7738 29.9062C52.8988 28.2188 52.9613 26.875 52.9613 25.875V24C52.9613 23.1875 52.93 22.2812 52.8675 21.2812C52.805 20.2188 52.68 19.1562 52.4925 18.0938C52.3675 16.9688 52.1488 15.9687 51.8363 15.0938C51.5238 14.1562 51.1175 13.4062 50.6175 12.8438C50.1175 12.2812 49.4613 12 48.6488 12C47.2738 11.5625 46.0863 11.6562 45.0863 12.2812C44.1488 12.9063 43.3675 13.9688 42.7425 15.4688C42.18 16.9062 41.7425 18.6875 41.43 20.8125C41.1175 22.9375 40.93 25.2812 40.8675 27.8438C40.805 30.4062 40.7738 33.125 40.7738 36C40.8363 38.875 40.8675 41.75 40.8675 44.625ZM57.36 44.9062C56.9225 42.0312 56.7038 39.25 56.7038 36.5625C56.7038 33.8125 56.86 31.0312 57.1725 28.2188C57.5475 25.4062 58.0475 22.5 58.6725 19.5C59.36 16.4375 60.1413 13.1562 61.0163 9.65625C61.0163 8.96875 61.2038 8.34375 61.5788 7.78125C61.9538 7.15625 62.4538 6.65625 63.0788 6.28125C63.7038 5.84375 64.36 5.5 65.0475 5.25C65.735 5 66.3913 4.875 67.0163 4.875C68.3913 4.875 69.6413 5.3125 70.7663 6.1875C71.8913 7.0625 72.8913 8.125 73.7663 9.375C74.7038 10.625 75.485 11.9688 76.11 13.4062C76.7975 14.7813 77.36 15.9687 77.7975 16.9688C78.2975 19.1562 78.6413 21.6562 78.8288 24.4688C79.0788 27.2188 79.11 30.0312 78.9225 32.9062C78.735 35.7812 78.2975 38.625 77.61 41.4375C76.9225 44.1875 75.9538 46.7188 74.7038 49.0312C73.4538 51.3438 71.8288 53.2812 69.8288 54.8438C67.8913 56.4062 65.5788 57.375 62.8913 57.75C61.4538 57.75 60.36 57.2812 59.61 56.3438C58.86 55.3438 58.2975 54.1562 57.9225 52.7812C57.61 51.3438 57.4225 49.9062 57.36 48.4688C57.36 47.0312 57.36 45.8438 57.36 44.9062ZM62.1413 44.625C62.1413 45.25 62.1413 45.8438 62.1413 46.4062C62.2038 46.9688 62.2663 47.5312 62.3288 48.0938C62.4538 48.5938 62.5788 49.1562 62.7038 49.7812C62.8913 50.3438 63.11 51 63.36 51.75H63.9225C65.4225 51.75 66.7038 51.25 67.7663 50.25C68.8288 49.25 69.735 47.9688 70.485 46.4062C71.235 44.7812 71.86 43 72.36 41.0625C72.86 39.0625 73.235 37.125 73.485 35.25C73.7975 33.3125 73.985 31.5312 74.0475 29.9062C74.1725 28.2188 74.235 26.875 74.235 25.875V24C74.235 23.1875 74.2038 22.2812 74.1413 21.2812C74.0788 20.2188 73.9538 19.1562 73.7663 18.0938C73.6413 16.9688 73.4225 15.9687 73.11 15.0938C72.7975 14.1562 72.3913 13.4062 71.8913 12.8438C71.3913 12.2812 70.735 12 69.9225 12C68.5475 11.5625 67.36 11.6562 66.36 12.2812C65.4225 12.9063 64.6413 13.9688 64.0163 15.4688C63.4538 16.9062 63.0163 18.6875 62.7038 20.8125C62.3913 22.9375 62.2038 25.2812 62.1413 27.8438C62.0788 30.4062 62.0475 33.125 62.0475 36C62.11 38.875 62.1413 41.75 62.1413 44.625ZM82.4775 57.4688C82.29 55.7188 82.1338 53.3438 82.0088 50.3438C81.8838 47.3438 81.7588 44.0938 81.6338 40.5938C81.5088 37.0312 81.3525 33.3438 81.165 29.5312C81.04 25.7188 80.8838 22.0938 80.6963 18.6562C80.5088 15.2187 80.2588 12.0938 79.9463 9.28125C79.6963 6.46875 79.415 4.21875 79.1025 2.53125C79.1025 1.28125 79.3838 0.5625 79.9463 0.375C80.5088 0.125 81.2275 0 82.1025 0C82.2275 0 82.5088 0 82.9463 0C83.3838 0 83.6963 0.03125 83.8838 0.09375C84.4463 1.96875 84.79 4.40625 84.915 7.40625C85.1025 10.3437 85.2275 13.5625 85.29 17.0625C85.415 20.5625 85.5088 24.1875 85.5713 27.9375C85.6963 31.6875 85.915 35.25 86.2275 38.625C87.1025 33.6875 87.8213 29.5938 88.3838 26.3438C89.0088 23.0938 89.5713 20.5 90.0713 18.5625C90.6338 16.5625 91.1338 15.0938 91.5713 14.1562C92.0713 13.1562 92.6025 12.5 93.165 12.1875C93.79 11.875 94.4463 11.75 95.1338 11.8125C95.8838 11.8125 96.7588 11.8125 97.7588 11.8125C98.8838 11.8125 99.79 12.25 100.478 13.125C101.228 14 101.79 15.125 102.165 16.5C102.603 17.875 102.915 19.375 103.103 21C103.353 22.625 103.571 24.2188 103.759 25.7812C103.946 27.2812 104.134 28.6562 104.321 29.9062C104.571 31.1562 104.946 32.0312 105.446 32.5312C107.009 27.9062 108.353 24.125 109.478 21.1875C110.603 18.25 111.571 15.9375 112.384 14.25C113.196 12.5 113.915 11.25 114.54 10.5C115.165 9.75 115.728 9.3125 116.228 9.1875C116.728 9 117.165 8.96875 117.54 9.09375C117.978 9.21875 118.415 9.28125 118.853 9.28125C120.54 9.28125 121.821 10.1562 122.696 11.9062C123.696 14.7188 124.384 17.4062 124.759 19.9688C125.134 22.4688 125.353 24.9062 125.415 27.2812C125.478 29.5938 125.478 31.8125 125.415 33.9375C125.415 36.0625 125.478 38.125 125.603 40.125C125.79 42.125 126.134 44.0938 126.634 46.0312C127.196 47.9688 128.134 49.875 129.446 51.75C128.946 52.75 128.446 53.4375 127.946 53.8125C127.446 54.125 126.759 54.2812 125.884 54.2812C125.134 54.2812 124.478 54.0312 123.915 53.5312C123.353 52.9688 122.884 52.3125 122.509 51.5625C122.134 50.75 121.821 49.9375 121.571 49.125C121.384 48.3125 121.196 47.5938 121.009 46.9688C120.759 38.0312 120.353 31.1875 119.79 26.4375C119.29 21.625 118.509 19.0938 117.446 18.8438C116.384 18.5938 115.009 20.6875 113.321 25.125C111.696 29.5 109.665 36.375 107.228 45.75C107.04 46.0625 106.759 46.25 106.384 46.3125C106.009 46.375 105.603 46.4062 105.165 46.4062C104.79 46.4062 104.384 46.4062 103.946 46.4062C103.571 46.3438 103.196 46.3438 102.821 46.4062C101.259 37.2188 99.9463 30.625 98.8838 26.625C97.8838 22.5625 96.8525 21 95.79 21.9375C94.7275 22.875 93.54 26.25 92.2275 32.0625C90.915 37.8125 89.2275 45.9062 87.165 56.3438L82.4775 57.4688Z" fill="#1A1A1A"/>
<path d="M29.2537 86.003C28.2724 86.003 27.36 85.7577 26.5167 85.267C25.6734 84.7763 25.0064 84.117 24.5157 83.289C24.025 82.4457 23.7797 81.541 23.7797 80.575C23.7797 79.609 24.025 78.712 24.5157 77.884C25.0064 77.0407 25.6734 76.3737 26.5167 75.883C27.36 75.3923 28.2724 75.147 29.2537 75.147C30.2504 75.147 31.1934 75.4153 32.0827 75.952C32.972 76.4733 33.593 77.1557 33.9457 77.999V75.4H34.6817V85.75H33.9457V83.174C33.5317 84.0327 32.8877 84.7227 32.0137 85.244C31.155 85.75 30.235 86.003 29.2537 86.003ZM29.2997 85.359C30.143 85.359 30.925 85.1443 31.6457 84.715C32.3664 84.2703 32.9337 83.6877 33.3477 82.967C33.777 82.231 33.9917 81.4337 33.9917 80.575C33.9917 79.7317 33.777 78.942 33.3477 78.206C32.9184 77.47 32.3434 76.8873 31.6227 76.458C30.902 76.0133 30.12 75.791 29.2767 75.791C28.4334 75.791 27.6437 76.0133 26.9077 76.458C26.187 76.9027 25.6044 77.493 25.1597 78.229C24.7304 78.965 24.5157 79.7547 24.5157 80.598C24.5157 81.4413 24.7304 82.231 25.1597 82.967C25.6044 83.6877 26.1947 84.2703 26.9307 84.715C27.6667 85.1443 28.4564 85.359 29.2997 85.359ZM51.1025 86.21C49.4925 86.21 48.0128 85.819 46.6635 85.037C45.3141 84.2397 44.2408 83.151 43.4435 81.771C42.6615 80.3757 42.2705 78.8117 42.2705 77.079C42.2705 75.4077 42.6768 73.882 43.4895 72.502C44.3175 71.122 45.4138 70.0333 46.7785 69.236C48.1585 68.4387 49.6228 68.04 51.1715 68.04C52.2448 68.04 53.0958 68.1397 53.7245 68.339C54.3531 68.523 55.0815 68.8527 55.9095 69.328V70.179C55.1275 69.6423 54.3991 69.2667 53.7245 69.052C53.0651 68.822 52.2371 68.707 51.2405 68.707C49.7225 68.707 48.3348 69.098 47.0775 69.88C45.8355 70.6467 44.8465 71.6817 44.1105 72.985C43.3898 74.273 43.0295 75.6607 43.0295 77.148C43.0295 78.6507 43.3975 80.046 44.1335 81.334C44.8695 82.622 45.8431 83.6493 47.0545 84.416C48.2811 85.1673 49.5998 85.543 51.0105 85.543C52.0225 85.543 52.9041 85.428 53.6555 85.198C54.4068 84.9527 55.1581 84.577 55.9095 84.071V84.922C55.1735 85.3667 54.4145 85.6887 53.6325 85.888C52.8658 86.1027 52.0225 86.21 51.1025 86.21ZM67.2283 85.75L62.9043 76.849L58.5573 85.75H57.7983L62.4673 76.136L58.6493 68.5H59.5233L62.8813 75.354L66.2163 68.5H67.0213L63.3413 76.044L68.0793 85.75H67.2283ZM77.579 86.003C76.843 86.003 76.1914 85.8803 75.624 85.635C75.0567 85.3743 74.6504 85.0447 74.405 84.646V83.427C74.6964 84.0863 75.095 84.577 75.601 84.899C76.107 85.2057 76.751 85.359 77.533 85.359C78.2844 85.359 78.89 85.129 79.35 84.669C79.81 84.1937 80.04 83.588 80.04 82.852C80.04 82.2233 79.9097 81.7403 79.649 81.403C79.3884 81.0503 78.9667 80.6977 78.384 80.345L77.51 79.839C76.8814 79.4557 76.406 79.1567 76.084 78.942C75.7774 78.712 75.532 78.459 75.348 78.183C75.164 77.8917 75.072 77.5543 75.072 77.171C75.072 76.5577 75.2867 76.067 75.716 75.699C76.1454 75.331 76.705 75.147 77.395 75.147C78.2384 75.147 78.9437 75.3387 79.511 75.722V76.734C79.0357 76.1053 78.3534 75.791 77.464 75.791C76.9734 75.791 76.5747 75.9137 76.268 76.159C75.9614 76.4043 75.808 76.7187 75.808 77.102C75.808 77.4393 75.9 77.7383 76.084 77.999C76.268 78.2443 76.521 78.4743 76.843 78.689C77.1804 78.9037 77.7324 79.2257 78.499 79.655C79.281 80.0997 79.856 80.5597 80.224 81.035C80.592 81.495 80.776 82.1007 80.776 82.852C80.776 83.8027 80.4617 84.5693 79.833 85.152C79.2197 85.7193 78.4684 86.003 77.579 86.003ZM86.7711 85.888C85.6365 85.888 84.6935 85.543 83.9421 84.853C83.2061 84.163 82.8381 83.2123 82.8381 82.001V71.237H83.5741V75.4H86.7481V76.044H83.5741V82.001C83.5741 83.013 83.8731 83.8103 84.4711 84.393C85.0845 84.9603 85.8511 85.244 86.7711 85.244V85.888ZM93.2598 86.003C91.8032 86.003 90.6762 85.6043 89.8788 84.807C89.0968 84.0097 88.7058 82.8827 88.7058 81.426V75.4H89.4418V81.426C89.4418 82.6833 89.7715 83.657 90.4308 84.347C91.1055 85.0217 92.0485 85.359 93.2598 85.359C93.9958 85.359 94.6705 85.198 95.2838 84.876C95.8972 84.5387 96.3802 84.071 96.7328 83.473C97.0855 82.875 97.2618 82.1927 97.2618 81.426V75.4H97.9978V85.75H97.2618V83.818C96.9092 84.462 96.3802 84.991 95.6748 85.405C94.9695 85.8037 94.1645 86.003 93.2598 86.003ZM105.778 86.003C104.781 86.003 103.861 85.7577 103.018 85.267C102.19 84.7763 101.531 84.117 101.04 83.289C100.549 82.461 100.304 81.5563 100.304 80.575C100.304 79.5937 100.549 78.689 101.04 77.861C101.531 77.033 102.19 76.3737 103.018 75.883C103.861 75.3923 104.781 75.147 105.778 75.147C106.744 75.147 107.664 75.4077 108.538 75.929C109.412 76.435 110.056 77.102 110.47 77.93V68.5H111.206V85.75H110.47V83.243C110.01 84.071 109.343 84.738 108.469 85.244C107.61 85.75 106.713 86.003 105.778 86.003ZM105.755 85.359C106.598 85.359 107.38 85.1443 108.101 84.715C108.837 84.2703 109.42 83.6877 109.849 82.967C110.294 82.231 110.516 81.4413 110.516 80.598C110.516 79.7547 110.294 78.965 109.849 78.229C109.42 77.493 108.837 76.9027 108.101 76.458C107.38 76.0133 106.598 75.791 105.755 75.791C104.912 75.791 104.13 76.0133 103.409 76.458C102.688 76.8873 102.113 77.47 101.684 78.206C101.255 78.942 101.04 79.7317 101.04 80.575C101.04 81.4337 101.247 82.231 101.661 82.967C102.09 83.6877 102.665 84.2703 103.386 84.715C104.122 85.1443 104.912 85.359 105.755 85.359ZM115.006 73.031C114.791 73.031 114.6 72.9543 114.431 72.801C114.278 72.6477 114.201 72.456 114.201 72.226C114.201 72.0113 114.278 71.8273 114.431 71.674C114.6 71.5207 114.791 71.444 115.006 71.444C115.221 71.444 115.405 71.5207 115.558 71.674C115.727 71.8273 115.811 72.0113 115.811 72.226C115.811 72.456 115.727 72.6477 115.558 72.801C115.405 72.9543 115.221 73.031 115.006 73.031ZM114.638 75.4H115.374V85.75H114.638V75.4ZM123.725 86.118C122.683 86.118 121.74 85.865 120.896 85.359C120.053 84.8377 119.394 84.1553 118.918 83.312C118.443 82.4533 118.205 81.5257 118.205 80.529C118.205 79.5477 118.443 78.6353 118.918 77.792C119.409 76.9487 120.068 76.2817 120.896 75.791C121.74 75.285 122.675 75.032 123.702 75.032C124.714 75.032 125.634 75.285 126.462 75.791C127.306 76.2817 127.965 76.9487 128.44 77.792C128.916 78.6353 129.153 79.5477 129.153 80.529C129.153 81.5563 128.923 82.4993 128.463 83.358C128.003 84.2013 127.359 84.876 126.531 85.382C125.719 85.8727 124.783 86.118 123.725 86.118ZM123.725 85.474C124.599 85.474 125.397 85.2517 126.117 84.807C126.838 84.3623 127.398 83.772 127.796 83.036C128.21 82.2847 128.417 81.4643 128.417 80.575C128.417 79.701 128.21 78.8883 127.796 78.137C127.382 77.3857 126.815 76.7877 126.094 76.343C125.374 75.8983 124.576 75.676 123.702 75.676C122.828 75.676 122.023 75.906 121.287 76.366C120.567 76.8107 119.992 77.4087 119.562 78.16C119.148 78.9113 118.941 79.724 118.941 80.598C118.941 81.472 119.148 82.2847 119.562 83.036C119.992 83.772 120.567 84.3623 121.287 84.807C122.023 85.2517 122.836 85.474 123.725 85.474Z" fill="#1A1A1A"/>
<circle cx="47" cy="43.75" r="4" fill="#1A1A1A"/>
<circle cx="70" cy="43.75" r="4" fill="#1A1A1A"/>
<path d="M149.71 83.56C149.71 74.74 150.925 66.685 153.355 59.395C155.875 52.195 159.79 44.815 165.1 37.255C167.53 33.835 169.24 31.315 170.23 29.695C171.31 27.985 172.48 25.465 173.74 22.135C175 18.715 175.765 15.16 176.035 11.47H140.26V19.165C140.26 20.065 139.9 20.83 139.18 21.46C138.46 22 137.605 22.27 136.615 22.27C135.625 22.27 134.77 22 134.05 21.46C133.33 20.83 132.97 20.065 132.97 19.165V8.23C132.97 6.25 134.005 5.26 136.075 5.26H180.355C182.425 5.26 183.46 6.295 183.46 8.365C183.46 15.745 182.11 22.045 179.41 27.265C177.88 30.235 176.665 32.44 175.765 33.88C174.865 35.23 172.75 38.2 169.42 42.79C166.18 47.38 163.3 52.96 160.78 59.53C158.26 66.1 157 74.11 157 83.56C157 84.46 156.64 85.18 155.92 85.72C155.2 86.35 154.345 86.665 153.355 86.665C152.365 86.665 151.51 86.35 150.79 85.72C150.07 85.18 149.71 84.46 149.71 83.56ZM207.903 3.91C210.243 3.91 211.413 4.855 211.413 6.745V49.405H220.323C221.223 49.405 221.943 49.72 222.483 50.35C223.113 50.98 223.428 51.745 223.428 52.645C223.428 53.545 223.113 54.31 222.483 54.94C221.943 55.48 221.223 55.75 220.323 55.75H195.213C194.313 55.75 193.548 55.48 192.918 54.94C192.378 54.31 192.108 53.545 192.108 52.645C192.108 51.745 192.378 50.98 192.918 50.35C193.548 49.72 194.313 49.405 195.213 49.405H204.123V15.25C200.793 18.4 198.048 19.975 195.888 19.975C194.988 19.975 194.223 19.705 193.593 19.165C193.053 18.625 192.783 17.77 192.783 16.6C192.783 15.43 193.413 14.575 194.673 14.035C198.633 12.325 201.963 9.535 204.663 5.665C205.563 4.495 206.643 3.91 207.903 3.91ZM270.646 49.405H279.691C280.591 49.405 281.311 49.72 281.851 50.35C282.481 50.98 282.796 51.745 282.796 52.645C282.796 53.545 282.481 54.31 281.851 54.94C281.311 55.48 280.591 55.75 279.691 55.75H270.646V83.56C270.646 84.46 270.286 85.18 269.566 85.72C268.846 86.35 267.991 86.665 267.001 86.665C266.011 86.665 265.156 86.35 264.436 85.72C263.716 85.18 263.356 84.46 263.356 83.56V55.75H231.766C230.236 55.75 229.246 55.21 228.796 54.13C228.526 53.59 228.391 53.095 228.391 52.645C228.391 52.105 228.571 51.565 228.931 51.025L254.716 5.8C255.436 4.54 256.201 3.91 257.011 3.91C257.821 3.91 258.631 4.09 259.441 4.45C260.251 4.81 260.881 5.395 261.331 6.205C261.781 7.015 261.781 7.825 261.331 8.635L237.841 49.54H263.356V40.9C263.356 40 263.716 39.28 264.436 38.74C265.156 38.11 266.011 37.795 267.001 37.795C267.991 37.795 268.846 38.11 269.566 38.74C270.286 39.28 270.646 40 270.646 40.9V49.405Z" fill="#FF0000"/>
</svg>
