<svg width="322" height="110" viewBox="0 0 322 110" fill="none" xmlns="http://www.w3.org/2000/svg">
<path d="M2.4375 12.5625V11.8125C2.4375 11.1875 2.65625 10.75 3.09375 10.5C3.59375 10.25 4.15625 10.125 4.78125 10.125C5.28125 10.125 5.75 10.1875 6.1875 10.3125C6.625 10.375 6.96875 10.7187 7.21875 11.3438C7.40625 12.2812 7.59375 13.5938 7.78125 15.2812C7.96875 16.9062 8.1875 18.7188 8.4375 20.7188C8.6875 22.7188 8.9375 24.8438 9.1875 27.0938C9.5 29.2812 9.78125 31.375 10.0312 33.375C10.3438 35.3125 10.6562 37.0625 10.9688 38.625C11.2812 40.1875 11.625 41.375 12 42.1875C11.8125 36.1875 12 31 12.5625 26.625C13.125 22.1875 14.1875 18.5938 15.75 15.8438C17.375 13.0312 19.5625 11.0937 22.3125 10.0312C25.125 8.90625 28.625 8.65625 32.8125 9.28125C34.75 9.28125 35.7188 10.3125 35.7188 12.375C35.7188 13.1875 35.1875 13.75 34.125 14.0625C33.0625 14.3125 31.875 14.5 30.5625 14.625C29.25 14.6875 27.9688 14.7813 26.7188 14.9062C25.4688 15.0312 24.5625 15.3438 24 15.8438C21.75 17.0938 20.1562 19.0312 19.2188 21.6562C18.3438 24.2812 17.7188 27.375 17.3438 30.9375C16.9688 34.5 16.6875 38.4062 16.5 42.6562C16.375 46.8438 15.9688 51.1562 15.2812 55.5938C15.2812 56.2188 15.0312 56.6875 14.5312 57C14.0312 57.3125 13.4062 57.4688 12.6562 57.4688C11.9688 57.4688 11.2812 57.3125 10.5938 57C9.96875 56.6875 9.46875 56.2188 9.09375 55.5938L2.4375 12.5625ZM36.0863 44.9062C35.6488 42.0312 35.43 39.25 35.43 36.5625C35.43 33.8125 35.5863 31.0312 35.8988 28.2188C36.2738 25.4062 36.7738 22.5 37.3988 19.5C38.0863 16.4375 38.8675 13.1562 39.7425 9.65625C39.7425 8.96875 39.93 8.34375 40.305 7.78125C40.68 7.15625 41.18 6.65625 41.805 6.28125C42.43 5.84375 43.0863 5.5 43.7738 5.25C44.4613 5 45.1175 4.875 45.7425 4.875C47.1175 4.875 48.3675 5.3125 49.4925 6.1875C50.6175 7.0625 51.6175 8.125 52.4925 9.375C53.43 10.625 54.2113 11.9688 54.8363 13.4062C55.5238 14.7813 56.0863 15.9687 56.5238 16.9688C57.0238 19.1562 57.3675 21.6562 57.555 24.4688C57.805 27.2188 57.8363 30.0312 57.6488 32.9062C57.4613 35.7812 57.0238 38.625 56.3363 41.4375C55.6488 44.1875 54.68 46.7188 53.43 49.0312C52.18 51.3438 50.555 53.2812 48.555 54.8438C46.6175 56.4062 44.305 57.375 41.6175 57.75C40.18 57.75 39.0863 57.2812 38.3363 56.3438C37.5863 55.3438 37.0238 54.1562 36.6488 52.7812C36.3363 51.3438 36.1488 49.9062 36.0863 48.4688C36.0863 47.0312 36.0863 45.8438 36.0863 44.9062ZM40.8675 44.625C40.8675 45.25 40.8675 45.8438 40.8675 46.4062C40.93 46.9688 40.9925 47.5312 41.055 48.0938C41.18 48.5938 41.305 49.1562 41.43 49.7812C41.6175 50.3438 41.8363 51 42.0863 51.75H42.6488C44.1488 51.75 45.43 51.25 46.4925 50.25C47.555 49.25 48.4613 47.9688 49.2113 46.4062C49.9613 44.7812 50.5863 43 51.0863 41.0625C51.5863 39.0625 51.9613 37.125 52.2113 35.25C52.5238 33.3125 52.7113 31.5312 52.7738 29.9062C52.8988 28.2188 52.9613 26.875 52.9613 25.875V24C52.9613 23.1875 52.93 22.2812 52.8675 21.2812C52.805 20.2188 52.68 19.1562 52.4925 18.0938C52.3675 16.9688 52.1488 15.9687 51.8363 15.0938C51.5238 14.1562 51.1175 13.4062 50.6175 12.8438C50.1175 12.2812 49.4613 12 48.6488 12C47.2738 11.5625 46.0863 11.6562 45.0863 12.2812C44.1488 12.9063 43.3675 13.9688 42.7425 15.4688C42.18 16.9062 41.7425 18.6875 41.43 20.8125C41.1175 22.9375 40.93 25.2812 40.8675 27.8438C40.805 30.4062 40.7738 33.125 40.7738 36C40.8363 38.875 40.8675 41.75 40.8675 44.625ZM57.36 44.9062C56.9225 42.0312 56.7038 39.25 56.7038 36.5625C56.7038 33.8125 56.86 31.0312 57.1725 28.2188C57.5475 25.4062 58.0475 22.5 58.6725 19.5C59.36 16.4375 60.1413 13.1562 61.0163 9.65625C61.0163 8.96875 61.2038 8.34375 61.5788 7.78125C61.9538 7.15625 62.4538 6.65625 63.0788 6.28125C63.7038 5.84375 64.36 5.5 65.0475 5.25C65.735 5 66.3913 4.875 67.0163 4.875C68.3913 4.875 69.6413 5.3125 70.7663 6.1875C71.8913 7.0625 72.8913 8.125 73.7663 9.375C74.7038 10.625 75.485 11.9688 76.11 13.4062C76.7975 14.7813 77.36 15.9687 77.7975 16.9688C78.2975 19.1562 78.6413 21.6562 78.8288 24.4688C79.0788 27.2188 79.11 30.0312 78.9225 32.9062C78.735 35.7812 78.2975 38.625 77.61 41.4375C76.9225 44.1875 75.9538 46.7188 74.7038 49.0312C73.4538 51.3438 71.8288 53.2812 69.8288 54.8438C67.8913 56.4062 65.5788 57.375 62.8913 57.75C61.4538 57.75 60.36 57.2812 59.61 56.3438C58.86 55.3438 58.2975 54.1562 57.9225 52.7812C57.61 51.3438 57.4225 49.9062 57.36 48.4688C57.36 47.0312 57.36 45.8438 57.36 44.9062ZM62.1413 44.625C62.1413 45.25 62.1413 45.8438 62.1413 46.4062C62.2038 46.9688 62.2663 47.5312 62.3288 48.0938C62.4538 48.5938 62.5788 49.1562 62.7038 49.7812C62.8913 50.3438 63.11 51 63.36 51.75H63.9225C65.4225 51.75 66.7038 51.25 67.7663 50.25C68.8288 49.25 69.735 47.9688 70.485 46.4062C71.235 44.7812 71.86 43 72.36 41.0625C72.86 39.0625 73.235 37.125 73.485 35.25C73.7975 33.3125 73.985 31.5312 74.0475 29.9062C74.1725 28.2188 74.235 26.875 74.235 25.875V24C74.235 23.1875 74.2038 22.2812 74.1413 21.2812C74.0788 20.2188 73.9538 19.1562 73.7663 18.0938C73.6413 16.9688 73.4225 15.9687 73.11 15.0938C72.7975 14.1562 72.3913 13.4062 71.8913 12.8438C71.3913 12.2812 70.735 12 69.9225 12C68.5475 11.5625 67.36 11.6562 66.36 12.2812C65.4225 12.9063 64.6413 13.9688 64.0163 15.4688C63.4538 16.9062 63.0163 18.6875 62.7038 20.8125C62.3913 22.9375 62.2038 25.2812 62.1413 27.8438C62.0788 30.4062 62.0475 33.125 62.0475 36C62.11 38.875 62.1413 41.75 62.1413 44.625ZM82.4775 57.4688C82.29 55.7188 82.1338 53.3438 82.0088 50.3438C81.8838 47.3438 81.7588 44.0938 81.6338 40.5938C81.5088 37.0312 81.3525 33.3438 81.165 29.5312C81.04 25.7188 80.8838 22.0938 80.6963 18.6562C80.5088 15.2187 80.2588 12.0938 79.9463 9.28125C79.6963 6.46875 79.415 4.21875 79.1025 2.53125C79.1025 1.28125 79.3838 0.5625 79.9463 0.375C80.5088 0.125 81.2275 0 82.1025 0C82.2275 0 82.5088 0 82.9463 0C83.3838 0 83.6963 0.03125 83.8838 0.09375C84.4463 1.96875 84.79 4.40625 84.915 7.40625C85.1025 10.3437 85.2275 13.5625 85.29 17.0625C85.415 20.5625 85.5088 24.1875 85.5713 27.9375C85.6963 31.6875 85.915 35.25 86.2275 38.625C87.1025 33.6875 87.8213 29.5938 88.3838 26.3438C89.0088 23.0938 89.5713 20.5 90.0713 18.5625C90.6338 16.5625 91.1338 15.0938 91.5713 14.1562C92.0713 13.1562 92.6025 12.5 93.165 12.1875C93.79 11.875 94.4463 11.75 95.1338 11.8125C95.8838 11.8125 96.7588 11.8125 97.7588 11.8125C98.8838 11.8125 99.79 12.25 100.478 13.125C101.228 14 101.79 15.125 102.165 16.5C102.603 17.875 102.915 19.375 103.103 21C103.353 22.625 103.571 24.2188 103.759 25.7812C103.946 27.2812 104.134 28.6562 104.321 29.9062C104.571 31.1562 104.946 32.0312 105.446 32.5312C107.009 27.9062 108.353 24.125 109.478 21.1875C110.603 18.25 111.571 15.9375 112.384 14.25C113.196 12.5 113.915 11.25 114.54 10.5C115.165 9.75 115.728 9.3125 116.228 9.1875C116.728 9 117.165 8.96875 117.54 9.09375C117.978 9.21875 118.415 9.28125 118.853 9.28125C120.54 9.28125 121.821 10.1562 122.696 11.9062C123.696 14.7188 124.384 17.4062 124.759 19.9688C125.134 22.4688 125.353 24.9062 125.415 27.2812C125.478 29.5938 125.478 31.8125 125.415 33.9375C125.415 36.0625 125.478 38.125 125.603 40.125C125.79 42.125 126.134 44.0938 126.634 46.0312C127.196 47.9688 128.134 49.875 129.446 51.75C128.946 52.75 128.446 53.4375 127.946 53.8125C127.446 54.125 126.759 54.2812 125.884 54.2812C125.134 54.2812 124.478 54.0312 123.915 53.5312C123.353 52.9688 122.884 52.3125 122.509 51.5625C122.134 50.75 121.821 49.9375 121.571 49.125C121.384 48.3125 121.196 47.5938 121.009 46.9688C120.759 38.0312 120.353 31.1875 119.79 26.4375C119.29 21.625 118.509 19.0938 117.446 18.8438C116.384 18.5938 115.009 20.6875 113.321 25.125C111.696 29.5 109.665 36.375 107.228 45.75C107.04 46.0625 106.759 46.25 106.384 46.3125C106.009 46.375 105.603 46.4062 105.165 46.4062C104.79 46.4062 104.384 46.4062 103.946 46.4062C103.571 46.3438 103.196 46.3438 102.821 46.4062C101.259 37.2188 99.9463 30.625 98.8838 26.625C97.8838 22.5625 96.8525 21 95.79 21.9375C94.7275 22.875 93.54 26.25 92.2275 32.0625C90.915 37.8125 89.2275 45.9062 87.165 56.3438L82.4775 57.4688Z" fill="#1A1A1A"/>
<path d="M80.5195 81.97C79.6662 81.97 78.8729 81.7567 78.1395 81.33C77.4062 80.9033 76.8262 80.33 76.3995 79.61C75.9729 78.8767 75.7595 78.09 75.7595 77.25C75.7595 76.41 75.9729 75.63 76.3995 74.91C76.8262 74.1767 77.4062 73.5967 78.1395 73.17C78.8729 72.7433 79.6662 72.53 80.5195 72.53C81.3862 72.53 82.2062 72.7633 82.9795 73.23C83.7529 73.6833 84.2929 74.2767 84.5995 75.01V72.75H85.2395V81.75H84.5995V79.51C84.2395 80.2567 83.6795 80.8567 82.9195 81.31C82.1729 81.75 81.3729 81.97 80.5195 81.97ZM80.5595 81.41C81.2929 81.41 81.9729 81.2233 82.5995 80.85C83.2262 80.4633 83.7195 79.9567 84.0795 79.33C84.4529 78.69 84.6395 77.9967 84.6395 77.25C84.6395 76.5167 84.4529 75.83 84.0795 75.19C83.7062 74.55 83.2062 74.0433 82.5795 73.67C81.9529 73.2833 81.2729 73.09 80.5395 73.09C79.8062 73.09 79.1195 73.2833 78.4795 73.67C77.8529 74.0567 77.3462 74.57 76.9595 75.21C76.5862 75.85 76.3995 76.5367 76.3995 77.27C76.3995 78.0033 76.5862 78.69 76.9595 79.33C77.3462 79.9567 77.8595 80.4633 78.4995 80.85C79.1395 81.2233 79.8262 81.41 80.5595 81.41ZM87.7639 72.75H88.4039V74.75C88.6972 74.0833 89.1972 73.55 89.9039 73.15C90.6106 72.7367 91.3906 72.53 92.2439 72.53C93.3506 72.53 94.2239 72.8833 94.8639 73.59C95.5172 74.2833 95.8439 75.2567 95.8439 76.51V81.75H95.2039V76.51C95.2039 75.43 94.9372 74.59 94.4039 73.99C93.8839 73.39 93.1506 73.09 92.2039 73.09C91.5106 73.09 90.8706 73.25 90.2839 73.57C89.7106 73.8767 89.2506 74.3033 88.9039 74.85C88.5706 75.3967 88.4039 76.0167 88.4039 76.71V81.75H87.7639V72.75ZM102.649 82.07C101.743 82.07 100.923 81.85 100.189 81.41C99.456 80.9567 98.8827 80.3633 98.4694 79.63C98.056 78.8833 97.8494 78.0767 97.8494 77.21C97.8494 76.3567 98.056 75.5633 98.4694 74.83C98.896 74.0967 99.4694 73.5167 100.189 73.09C100.923 72.65 101.736 72.43 102.629 72.43C103.509 72.43 104.309 72.65 105.029 73.09C105.763 73.5167 106.336 74.0967 106.749 74.83C107.163 75.5633 107.369 76.3567 107.369 77.21C107.369 78.1033 107.169 78.9233 106.769 79.67C106.369 80.4033 105.809 80.99 105.089 81.43C104.383 81.8567 103.569 82.07 102.649 82.07ZM102.649 81.51C103.409 81.51 104.103 81.3167 104.729 80.93C105.356 80.5433 105.843 80.03 106.189 79.39C106.549 78.7367 106.729 78.0233 106.729 77.25C106.729 76.49 106.549 75.7833 106.189 75.13C105.829 74.4767 105.336 73.9567 104.709 73.57C104.083 73.1833 103.389 72.99 102.629 72.99C101.869 72.99 101.169 73.19 100.529 73.59C99.9027 73.9767 99.4027 74.4967 99.0294 75.15C98.6694 75.8033 98.4894 76.51 98.4894 77.27C98.4894 78.03 98.6694 78.7367 99.0294 79.39C99.4027 80.03 99.9027 80.5433 100.529 80.93C101.169 81.3167 101.876 81.51 102.649 81.51ZM112.585 81.87C111.599 81.87 110.779 81.57 110.125 80.97C109.485 80.37 109.165 79.5433 109.165 78.49V69.13H109.805V72.75H112.565V73.31H109.805V78.49C109.805 79.37 110.065 80.0633 110.585 80.57C111.119 81.0633 111.785 81.31 112.585 81.31V81.87ZM114.268 66.75H114.908V74.61C115.188 74.01 115.661 73.5167 116.328 73.13C117.008 72.73 117.694 72.53 118.388 72.53C119.654 72.53 120.628 72.8767 121.308 73.57C122.001 74.2633 122.348 75.2433 122.348 76.51V81.75H121.708V76.51C121.708 75.4167 121.414 74.5767 120.828 73.99C120.254 73.39 119.441 73.09 118.388 73.09C117.748 73.09 117.161 73.2433 116.628 73.55C116.094 73.8433 115.674 74.2567 115.368 74.79C115.061 75.31 114.908 75.8833 114.908 76.51V81.75H114.268V66.75ZM129.253 81.43C129.947 81.43 130.607 81.25 131.233 80.89C131.86 80.53 132.38 80.0367 132.793 79.41V80.43C132.3 80.9767 131.76 81.3767 131.173 81.63C130.587 81.87 129.92 81.99 129.173 81.99C128.347 81.99 127.567 81.77 126.833 81.33C126.113 80.89 125.533 80.3033 125.093 79.57C124.667 78.8367 124.453 78.0567 124.453 77.23C124.453 76.3367 124.667 75.5367 125.093 74.83C125.52 74.11 126.1 73.55 126.833 73.15C127.58 72.75 128.407 72.55 129.313 72.55C130.7 72.55 131.88 73.0967 132.853 74.19L126.573 80.39C127.013 80.75 127.44 81.0167 127.853 81.19C128.267 81.35 128.733 81.43 129.253 81.43ZM125.093 77.17C125.093 78.2767 125.46 79.2233 126.193 80.01L132.053 74.19C131.613 73.8033 131.187 73.53 130.773 73.37C130.36 73.1967 129.867 73.11 129.293 73.11C128.48 73.11 127.753 73.29 127.113 73.65C126.487 73.9967 125.993 74.4767 125.633 75.09C125.273 75.7033 125.093 76.3967 125.093 77.17ZM134.854 72.75H135.494V74.83C135.76 74.1767 136.147 73.6633 136.654 73.29C137.174 72.9167 137.76 72.73 138.414 72.73C138.827 72.73 139.247 72.8167 139.674 72.99V73.73C139.287 73.4367 138.854 73.29 138.374 73.29C137.894 73.29 137.427 73.4367 136.974 73.73C136.534 74.0233 136.174 74.4167 135.894 74.91C135.627 75.4033 135.494 75.93 135.494 76.49V81.75H134.854V72.75ZM54.2418 105.25C52.4918 105.25 50.8835 104.825 49.4168 103.975C47.9501 103.108 46.7835 101.925 45.9168 100.425C45.0668 98.9083 44.6418 97.2083 44.6418 95.325C44.6418 93.5083 45.0835 91.85 45.9668 90.35C46.8668 88.85 48.0585 87.6667 49.5418 86.8C51.0418 85.9333 52.6335 85.5 54.3168 85.5C55.4835 85.5 56.4085 85.6083 57.0918 85.825C57.7751 86.025 58.5668 86.3833 59.4668 86.9V87.825C58.6168 87.2417 57.8251 86.8333 57.0918 86.6C56.3751 86.35 55.4751 86.225 54.3918 86.225C52.7418 86.225 51.2335 86.65 49.8668 87.5C48.5168 88.3333 47.4418 89.4583 46.6418 90.875C45.8585 92.275 45.4668 93.7833 45.4668 95.4C45.4668 97.0333 45.8668 98.55 46.6668 99.95C47.4668 101.35 48.5251 102.467 49.8418 103.3C51.1751 104.117 52.6085 104.525 54.1418 104.525C55.2418 104.525 56.2001 104.4 57.0168 104.15C57.8335 103.883 58.6501 103.475 59.4668 102.925V103.85C58.6668 104.333 57.8418 104.683 56.9918 104.9C56.1585 105.133 55.2418 105.25 54.2418 105.25ZM71.7699 104.75L67.0699 95.075L62.3449 104.75H61.5199L66.5949 94.3L62.4449 86H63.3949L67.0449 93.45L70.6699 86H71.5449L67.5449 94.2L72.6949 104.75H71.7699ZM83.0207 105.025C82.2207 105.025 81.5124 104.892 80.8957 104.625C80.279 104.342 79.8374 103.983 79.5707 103.55V102.225C79.8874 102.942 80.3207 103.475 80.8707 103.825C81.4207 104.158 82.1207 104.325 82.9707 104.325C83.7874 104.325 84.4457 104.075 84.9457 103.575C85.4457 103.058 85.6957 102.4 85.6957 101.6C85.6957 100.917 85.554 100.392 85.2707 100.025C84.9874 99.6417 84.529 99.2583 83.8957 98.875L82.9457 98.325C82.2624 97.9083 81.7457 97.5833 81.3957 97.35C81.0624 97.1 80.7957 96.825 80.5957 96.525C80.3957 96.2083 80.2957 95.8417 80.2957 95.425C80.2957 94.7583 80.529 94.225 80.9957 93.825C81.4624 93.425 82.0707 93.225 82.8207 93.225C83.7374 93.225 84.504 93.4333 85.1207 93.85V94.95C84.604 94.2667 83.8624 93.925 82.8957 93.925C82.3624 93.925 81.929 94.0583 81.5957 94.325C81.2624 94.5917 81.0957 94.9333 81.0957 95.35C81.0957 95.7167 81.1957 96.0417 81.3957 96.325C81.5957 96.5917 81.8707 96.8417 82.2207 97.075C82.5874 97.3083 83.1874 97.6583 84.0207 98.125C84.8707 98.6083 85.4957 99.1083 85.8957 99.625C86.2957 100.125 86.4957 100.783 86.4957 101.6C86.4957 102.633 86.154 103.467 85.4707 104.1C84.804 104.717 83.9874 105.025 83.0207 105.025ZM93.0121 104.9C91.7788 104.9 90.7538 104.525 89.9371 103.775C89.1371 103.025 88.7371 101.992 88.7371 100.675V88.975H89.5371V93.5H92.9871V94.2H89.5371V100.675C89.5371 101.775 89.8621 102.642 90.5121 103.275C91.1788 103.892 92.0121 104.2 93.0121 104.2V104.9ZM100.065 105.025C98.4817 105.025 97.2567 104.592 96.39 103.725C95.54 102.858 95.115 101.633 95.115 100.05V93.5H95.915V100.05C95.915 101.417 96.2734 102.475 96.99 103.225C97.7234 103.958 98.7484 104.325 100.065 104.325C100.865 104.325 101.598 104.15 102.265 103.8C102.932 103.433 103.457 102.925 103.84 102.275C104.223 101.625 104.415 100.883 104.415 100.05V93.5H105.215V104.75H104.415V102.65C104.032 103.35 103.457 103.925 102.69 104.375C101.923 104.808 101.048 105.025 100.065 105.025ZM113.672 105.025C112.589 105.025 111.589 104.758 110.672 104.225C109.772 103.692 109.055 102.975 108.522 102.075C107.989 101.175 107.722 100.192 107.722 99.125C107.722 98.0583 107.989 97.075 108.522 96.175C109.055 95.275 109.772 94.5583 110.672 94.025C111.589 93.4917 112.589 93.225 113.672 93.225C114.722 93.225 115.722 93.5083 116.672 94.075C117.622 94.625 118.322 95.35 118.772 96.25V86H119.572V104.75H118.772V102.025C118.272 102.925 117.547 103.65 116.597 104.2C115.664 104.75 114.689 105.025 113.672 105.025ZM113.647 104.325C114.564 104.325 115.414 104.092 116.197 103.625C116.997 103.142 117.63 102.508 118.097 101.725C118.58 100.925 118.822 100.067 118.822 99.15C118.822 98.2333 118.58 97.375 118.097 96.575C117.63 95.775 116.997 95.1333 116.197 94.65C115.414 94.1667 114.564 93.925 113.647 93.925C112.73 93.925 111.88 94.1667 111.097 94.65C110.314 95.1167 109.689 95.75 109.222 96.55C108.755 97.35 108.522 98.2083 108.522 99.125C108.522 100.058 108.747 100.925 109.197 101.725C109.664 102.508 110.289 103.142 111.072 103.625C111.872 104.092 112.73 104.325 113.647 104.325ZM123.702 90.925C123.469 90.925 123.261 90.8417 123.077 90.675C122.911 90.5083 122.827 90.3 122.827 90.05C122.827 89.8167 122.911 89.6167 123.077 89.45C123.261 89.2833 123.469 89.2 123.702 89.2C123.936 89.2 124.136 89.2833 124.302 89.45C124.486 89.6167 124.577 89.8167 124.577 90.05C124.577 90.3 124.486 90.5083 124.302 90.675C124.136 90.8417 123.936 90.925 123.702 90.925ZM123.302 93.5H124.102V104.75H123.302V93.5ZM133.18 105.15C132.047 105.15 131.022 104.875 130.105 104.325C129.188 103.758 128.472 103.017 127.955 102.1C127.438 101.167 127.18 100.158 127.18 99.075C127.18 98.0083 127.438 97.0167 127.955 96.1C128.488 95.1833 129.205 94.4583 130.105 93.925C131.022 93.375 132.038 93.1 133.155 93.1C134.255 93.1 135.255 93.375 136.155 93.925C137.072 94.4583 137.788 95.1833 138.305 96.1C138.822 97.0167 139.08 98.0083 139.08 99.075C139.08 100.192 138.83 101.217 138.33 102.15C137.83 103.067 137.13 103.8 136.23 104.35C135.347 104.883 134.33 105.15 133.18 105.15ZM133.18 104.45C134.13 104.45 134.997 104.208 135.78 103.725C136.563 103.242 137.172 102.6 137.605 101.8C138.055 100.983 138.28 100.092 138.28 99.125C138.28 98.175 138.055 97.2917 137.605 96.475C137.155 95.6583 136.538 95.0083 135.755 94.525C134.972 94.0417 134.105 93.8 133.155 93.8C132.205 93.8 131.33 94.05 130.53 94.55C129.747 95.0333 129.122 95.6833 128.655 96.5C128.205 97.3167 127.98 98.2 127.98 99.15C127.98 100.1 128.205 100.983 128.655 101.8C129.122 102.6 129.747 103.242 130.53 103.725C131.33 104.208 132.213 104.45 133.18 104.45Z" fill="#1A1A1A"/>
<circle cx="47" cy="43.75" r="4" fill="#1A1A1A"/>
<circle cx="70" cy="43.75" r="4" fill="#1A1A1A"/>
<path d="M156.236 101.946C156.236 91.1007 157.73 81.196 160.718 72.232C163.817 63.3787 168.631 54.304 175.16 45.008C178.148 40.8027 180.251 37.704 181.468 35.712C182.796 33.6093 184.235 30.5107 185.784 26.416C187.333 22.2107 188.274 17.8393 188.606 13.302H144.616V22.764C144.616 23.8707 144.173 24.8113 143.288 25.586C142.403 26.25 141.351 26.582 140.134 26.582C138.917 26.582 137.865 26.25 136.98 25.586C136.095 24.8113 135.652 23.8707 135.652 22.764V9.318C135.652 6.88333 136.925 5.666 139.47 5.666H193.918C196.463 5.666 197.736 6.93866 197.736 9.484C197.736 18.5587 196.076 26.3053 192.756 32.724C190.875 36.376 189.381 39.0873 188.274 40.858C187.167 42.518 184.567 46.17 180.472 51.814C176.488 57.458 172.947 64.3193 169.848 72.398C166.749 80.4767 165.2 90.326 165.2 101.946C165.2 103.053 164.757 103.938 163.872 104.602C162.987 105.377 161.935 105.764 160.718 105.764C159.501 105.764 158.449 105.377 157.564 104.602C156.679 103.938 156.236 103.053 156.236 101.946ZM227.792 4.006C230.67 4.006 232.108 5.168 232.108 7.492V59.948H243.064C244.171 59.948 245.056 60.3353 245.72 61.11C246.495 61.8847 246.882 62.8253 246.882 63.932C246.882 65.0387 246.495 65.9793 245.72 66.754C245.056 67.418 244.171 67.75 243.064 67.75H212.188C211.082 67.75 210.141 67.418 209.366 66.754C208.702 65.9793 208.37 65.0387 208.37 63.932C208.37 62.8253 208.702 61.8847 209.366 61.11C210.141 60.3353 211.082 59.948 212.188 59.948H223.144V17.95C219.05 21.8233 215.674 23.76 213.018 23.76C211.912 23.76 210.971 23.428 210.196 22.764C209.532 22.1 209.2 21.0487 209.2 19.61C209.2 18.1713 209.975 17.12 211.524 16.456C216.394 14.3533 220.488 10.9227 223.808 6.164C224.915 4.72533 226.243 4.006 227.792 4.006ZM304.942 59.948H316.064C317.171 59.948 318.056 60.3353 318.72 61.11C319.495 61.8847 319.882 62.8253 319.882 63.932C319.882 65.0387 319.495 65.9793 318.72 66.754C318.056 67.418 317.171 67.75 316.064 67.75H304.942V101.946C304.942 103.053 304.5 103.938 303.614 104.602C302.729 105.377 301.678 105.764 300.46 105.764C299.243 105.764 298.192 105.377 297.306 104.602C296.421 103.938 295.978 103.053 295.978 101.946V67.75H257.134C255.253 67.75 254.036 67.086 253.482 65.758C253.15 65.094 252.984 64.4853 252.984 63.932C252.984 63.268 253.206 62.604 253.648 61.94L285.354 6.33C286.24 4.78067 287.18 4.006 288.176 4.006C289.172 4.006 290.168 4.22733 291.164 4.67C292.16 5.11266 292.935 5.832 293.488 6.828C294.042 7.824 294.042 8.82 293.488 9.816L264.604 60.114H295.978V49.49C295.978 48.3833 296.421 47.498 297.306 46.834C298.192 46.0593 299.243 45.672 300.46 45.672C301.678 45.672 302.729 46.0593 303.614 46.834C304.5 47.498 304.942 48.3833 304.942 49.49V59.948Z" fill="#FF0000"/>
</svg>
