<svg width="307" height="99" viewBox="0 0 307 99" fill="none" xmlns="http://www.w3.org/2000/svg">
<path d="M2.4375 12.5625V11.8125C2.4375 11.1875 2.65625 10.75 3.09375 10.5C3.59375 10.25 4.15625 10.125 4.78125 10.125C5.28125 10.125 5.75 10.1875 6.1875 10.3125C6.625 10.375 6.96875 10.7187 7.21875 11.3438C7.40625 12.2812 7.59375 13.5938 7.78125 15.2812C7.96875 16.9062 8.1875 18.7188 8.4375 20.7188C8.6875 22.7188 8.9375 24.8438 9.1875 27.0938C9.5 29.2812 9.78125 31.375 10.0312 33.375C10.3438 35.3125 10.6562 37.0625 10.9688 38.625C11.2812 40.1875 11.625 41.375 12 42.1875C11.8125 36.1875 12 31 12.5625 26.625C13.125 22.1875 14.1875 18.5938 15.75 15.8438C17.375 13.0312 19.5625 11.0937 22.3125 10.0312C25.125 8.90625 28.625 8.65625 32.8125 9.28125C34.75 9.28125 35.7188 10.3125 35.7188 12.375C35.7188 13.1875 35.1875 13.75 34.125 14.0625C33.0625 14.3125 31.875 14.5 30.5625 14.625C29.25 14.6875 27.9688 14.7813 26.7188 14.9062C25.4688 15.0312 24.5625 15.3438 24 15.8438C21.75 17.0938 20.1562 19.0312 19.2188 21.6562C18.3438 24.2812 17.7188 27.375 17.3438 30.9375C16.9688 34.5 16.6875 38.4062 16.5 42.6562C16.375 46.8438 15.9688 51.1562 15.2812 55.5938C15.2812 56.2188 15.0312 56.6875 14.5312 57C14.0312 57.3125 13.4062 57.4688 12.6562 57.4688C11.9688 57.4688 11.2812 57.3125 10.5938 57C9.96875 56.6875 9.46875 56.2188 9.09375 55.5938L2.4375 12.5625ZM36.0863 44.9062C35.6488 42.0312 35.43 39.25 35.43 36.5625C35.43 33.8125 35.5863 31.0312 35.8988 28.2188C36.2738 25.4062 36.7738 22.5 37.3988 19.5C38.0863 16.4375 38.8675 13.1562 39.7425 9.65625C39.7425 8.96875 39.93 8.34375 40.305 7.78125C40.68 7.15625 41.18 6.65625 41.805 6.28125C42.43 5.84375 43.0863 5.5 43.7738 5.25C44.4613 5 45.1175 4.875 45.7425 4.875C47.1175 4.875 48.3675 5.3125 49.4925 6.1875C50.6175 7.0625 51.6175 8.125 52.4925 9.375C53.43 10.625 54.2113 11.9688 54.8363 13.4062C55.5238 14.7813 56.0863 15.9687 56.5238 16.9688C57.0238 19.1562 57.3675 21.6562 57.555 24.4688C57.805 27.2188 57.8363 30.0312 57.6488 32.9062C57.4613 35.7812 57.0238 38.625 56.3363 41.4375C55.6488 44.1875 54.68 46.7188 53.43 49.0312C52.18 51.3438 50.555 53.2812 48.555 54.8438C46.6175 56.4062 44.305 57.375 41.6175 57.75C40.18 57.75 39.0863 57.2812 38.3363 56.3438C37.5863 55.3438 37.0238 54.1562 36.6488 52.7812C36.3363 51.3438 36.1488 49.9062 36.0863 48.4688C36.0863 47.0312 36.0863 45.8438 36.0863 44.9062ZM40.8675 44.625C40.8675 45.25 40.8675 45.8438 40.8675 46.4062C40.93 46.9688 40.9925 47.5312 41.055 48.0938C41.18 48.5938 41.305 49.1562 41.43 49.7812C41.6175 50.3438 41.8363 51 42.0863 51.75H42.6488C44.1488 51.75 45.43 51.25 46.4925 50.25C47.555 49.25 48.4613 47.9688 49.2113 46.4062C49.9613 44.7812 50.5863 43 51.0863 41.0625C51.5863 39.0625 51.9613 37.125 52.2113 35.25C52.5238 33.3125 52.7113 31.5312 52.7738 29.9062C52.8988 28.2188 52.9613 26.875 52.9613 25.875V24C52.9613 23.1875 52.93 22.2812 52.8675 21.2812C52.805 20.2188 52.68 19.1562 52.4925 18.0938C52.3675 16.9688 52.1488 15.9687 51.8363 15.0938C51.5238 14.1562 51.1175 13.4062 50.6175 12.8438C50.1175 12.2812 49.4613 12 48.6488 12C47.2738 11.5625 46.0863 11.6562 45.0863 12.2812C44.1488 12.9063 43.3675 13.9688 42.7425 15.4688C42.18 16.9062 41.7425 18.6875 41.43 20.8125C41.1175 22.9375 40.93 25.2812 40.8675 27.8438C40.805 30.4062 40.7738 33.125 40.7738 36C40.8363 38.875 40.8675 41.75 40.8675 44.625ZM57.36 44.9062C56.9225 42.0312 56.7038 39.25 56.7038 36.5625C56.7038 33.8125 56.86 31.0312 57.1725 28.2188C57.5475 25.4062 58.0475 22.5 58.6725 19.5C59.36 16.4375 60.1413 13.1562 61.0163 9.65625C61.0163 8.96875 61.2038 8.34375 61.5788 7.78125C61.9538 7.15625 62.4538 6.65625 63.0788 6.28125C63.7038 5.84375 64.36 5.5 65.0475 5.25C65.735 5 66.3913 4.875 67.0163 4.875C68.3913 4.875 69.6413 5.3125 70.7663 6.1875C71.8913 7.0625 72.8913 8.125 73.7663 9.375C74.7038 10.625 75.485 11.9688 76.11 13.4062C76.7975 14.7813 77.36 15.9687 77.7975 16.9688C78.2975 19.1562 78.6413 21.6562 78.8288 24.4688C79.0788 27.2188 79.11 30.0312 78.9225 32.9062C78.735 35.7812 78.2975 38.625 77.61 41.4375C76.9225 44.1875 75.9538 46.7188 74.7038 49.0312C73.4538 51.3438 71.8288 53.2812 69.8288 54.8438C67.8913 56.4062 65.5788 57.375 62.8913 57.75C61.4538 57.75 60.36 57.2812 59.61 56.3438C58.86 55.3438 58.2975 54.1562 57.9225 52.7812C57.61 51.3438 57.4225 49.9062 57.36 48.4688C57.36 47.0312 57.36 45.8438 57.36 44.9062ZM62.1413 44.625C62.1413 45.25 62.1413 45.8438 62.1413 46.4062C62.2038 46.9688 62.2663 47.5312 62.3288 48.0938C62.4538 48.5938 62.5788 49.1562 62.7038 49.7812C62.8913 50.3438 63.11 51 63.36 51.75H63.9225C65.4225 51.75 66.7038 51.25 67.7663 50.25C68.8288 49.25 69.735 47.9688 70.485 46.4062C71.235 44.7812 71.86 43 72.36 41.0625C72.86 39.0625 73.235 37.125 73.485 35.25C73.7975 33.3125 73.985 31.5312 74.0475 29.9062C74.1725 28.2188 74.235 26.875 74.235 25.875V24C74.235 23.1875 74.2038 22.2812 74.1413 21.2812C74.0788 20.2188 73.9538 19.1562 73.7663 18.0938C73.6413 16.9688 73.4225 15.9687 73.11 15.0938C72.7975 14.1562 72.3913 13.4062 71.8913 12.8438C71.3913 12.2812 70.735 12 69.9225 12C68.5475 11.5625 67.36 11.6562 66.36 12.2812C65.4225 12.9063 64.6413 13.9688 64.0163 15.4688C63.4538 16.9062 63.0163 18.6875 62.7038 20.8125C62.3913 22.9375 62.2038 25.2812 62.1413 27.8438C62.0788 30.4062 62.0475 33.125 62.0475 36C62.11 38.875 62.1413 41.75 62.1413 44.625ZM82.4775 57.4688C82.29 55.7188 82.1338 53.3438 82.0088 50.3438C81.8838 47.3438 81.7588 44.0938 81.6338 40.5938C81.5088 37.0312 81.3525 33.3438 81.165 29.5312C81.04 25.7188 80.8838 22.0938 80.6963 18.6562C80.5088 15.2187 80.2588 12.0938 79.9463 9.28125C79.6963 6.46875 79.415 4.21875 79.1025 2.53125C79.1025 1.28125 79.3838 0.5625 79.9463 0.375C80.5088 0.125 81.2275 0 82.1025 0C82.2275 0 82.5088 0 82.9463 0C83.3838 0 83.6963 0.03125 83.8838 0.09375C84.4463 1.96875 84.79 4.40625 84.915 7.40625C85.1025 10.3437 85.2275 13.5625 85.29 17.0625C85.415 20.5625 85.5088 24.1875 85.5713 27.9375C85.6963 31.6875 85.915 35.25 86.2275 38.625C87.1025 33.6875 87.8213 29.5938 88.3838 26.3438C89.0088 23.0938 89.5713 20.5 90.0713 18.5625C90.6338 16.5625 91.1338 15.0938 91.5713 14.1562C92.0713 13.1562 92.6025 12.5 93.165 12.1875C93.79 11.875 94.4463 11.75 95.1338 11.8125C95.8838 11.8125 96.7588 11.8125 97.7588 11.8125C98.8838 11.8125 99.79 12.25 100.478 13.125C101.228 14 101.79 15.125 102.165 16.5C102.603 17.875 102.915 19.375 103.103 21C103.353 22.625 103.571 24.2188 103.759 25.7812C103.946 27.2812 104.134 28.6562 104.321 29.9062C104.571 31.1562 104.946 32.0312 105.446 32.5312C107.009 27.9062 108.353 24.125 109.478 21.1875C110.603 18.25 111.571 15.9375 112.384 14.25C113.196 12.5 113.915 11.25 114.54 10.5C115.165 9.75 115.728 9.3125 116.228 9.1875C116.728 9 117.165 8.96875 117.54 9.09375C117.978 9.21875 118.415 9.28125 118.853 9.28125C120.54 9.28125 121.821 10.1562 122.696 11.9062C123.696 14.7188 124.384 17.4062 124.759 19.9688C125.134 22.4688 125.353 24.9062 125.415 27.2812C125.478 29.5938 125.478 31.8125 125.415 33.9375C125.415 36.0625 125.478 38.125 125.603 40.125C125.79 42.125 126.134 44.0938 126.634 46.0312C127.196 47.9688 128.134 49.875 129.446 51.75C128.946 52.75 128.446 53.4375 127.946 53.8125C127.446 54.125 126.759 54.2812 125.884 54.2812C125.134 54.2812 124.478 54.0312 123.915 53.5312C123.353 52.9688 122.884 52.3125 122.509 51.5625C122.134 50.75 121.821 49.9375 121.571 49.125C121.384 48.3125 121.196 47.5938 121.009 46.9688C120.759 38.0312 120.353 31.1875 119.79 26.4375C119.29 21.625 118.509 19.0938 117.446 18.8438C116.384 18.5938 115.009 20.6875 113.321 25.125C111.696 29.5 109.665 36.375 107.228 45.75C107.04 46.0625 106.759 46.25 106.384 46.3125C106.009 46.375 105.603 46.4062 105.165 46.4062C104.79 46.4062 104.384 46.4062 103.946 46.4062C103.571 46.3438 103.196 46.3438 102.821 46.4062C101.259 37.2188 99.9463 30.625 98.8838 26.625C97.8838 22.5625 96.8525 21 95.79 21.9375C94.7275 22.875 93.54 26.25 92.2275 32.0625C90.915 37.8125 89.2275 45.9062 87.165 56.3438L82.4775 57.4688Z" fill="#1A1A1A"/>
<path d="M61.5975 76.003C60.6161 76.003 59.7038 75.7577 58.8605 75.267C58.0171 74.7763 57.3501 74.117 56.8595 73.289C56.3688 72.4457 56.1235 71.541 56.1235 70.575C56.1235 69.609 56.3688 68.712 56.8595 67.884C57.3501 67.0407 58.0171 66.3737 58.8605 65.883C59.7038 65.3923 60.6161 65.147 61.5975 65.147C62.5941 65.147 63.5371 65.4153 64.4265 65.952C65.3158 66.4733 65.9368 67.1557 66.2895 67.999V65.4H67.0255V75.75H66.2895V73.174C65.8755 74.0327 65.2315 74.7227 64.3575 75.244C63.4988 75.75 62.5788 76.003 61.5975 76.003ZM61.6435 75.359C62.4868 75.359 63.2688 75.1443 63.9895 74.715C64.7101 74.2703 65.2775 73.6877 65.6915 72.967C66.1208 72.231 66.3355 71.4337 66.3355 70.575C66.3355 69.7317 66.1208 68.942 65.6915 68.206C65.2621 67.47 64.6871 66.8873 63.9665 66.458C63.2458 66.0133 62.4638 65.791 61.6205 65.791C60.7771 65.791 59.9875 66.0133 59.2515 66.458C58.5308 66.9027 57.9481 67.493 57.5035 68.229C57.0741 68.965 56.8595 69.7547 56.8595 70.598C56.8595 71.4413 57.0741 72.231 57.5035 72.967C57.9481 73.6877 58.5385 74.2703 59.2745 74.715C60.0105 75.1443 60.8001 75.359 61.6435 75.359ZM69.9285 65.4H70.6645V67.7C71.0018 66.9333 71.5768 66.32 72.3895 65.86C73.2022 65.3847 74.0992 65.147 75.0805 65.147C76.3532 65.147 77.3575 65.5533 78.0935 66.366C78.8448 67.1633 79.2205 68.2827 79.2205 69.724V75.75H78.4845V69.724C78.4845 68.482 78.1778 67.516 77.5645 66.826C76.9665 66.136 76.1232 65.791 75.0345 65.791C74.2372 65.791 73.5012 65.975 72.8265 66.343C72.1672 66.6957 71.6382 67.1863 71.2395 67.815C70.8562 68.4437 70.6645 69.1567 70.6645 69.954V75.75H69.9285V65.4ZM87.0468 76.118C86.0041 76.118 85.0611 75.865 84.2178 75.359C83.3744 74.8377 82.7151 74.1553 82.2398 73.312C81.7644 72.4533 81.5268 71.5257 81.5268 70.529C81.5268 69.5477 81.7644 68.6353 82.2398 67.792C82.7304 66.9487 83.3898 66.2817 84.2178 65.791C85.0611 65.285 85.9964 65.032 87.0238 65.032C88.0358 65.032 88.9558 65.285 89.7838 65.791C90.6271 66.2817 91.2864 66.9487 91.7618 67.792C92.2371 68.6353 92.4748 69.5477 92.4748 70.529C92.4748 71.5563 92.2448 72.4993 91.7848 73.358C91.3248 74.2013 90.6808 74.876 89.8528 75.382C89.0401 75.8727 88.1048 76.118 87.0468 76.118ZM87.0468 75.474C87.9208 75.474 88.7181 75.2517 89.4388 74.807C90.1594 74.3623 90.7191 73.772 91.1178 73.036C91.5318 72.2847 91.7388 71.4643 91.7388 70.575C91.7388 69.701 91.5318 68.8883 91.1178 68.137C90.7038 67.3857 90.1364 66.7877 89.4158 66.343C88.6951 65.8983 87.8978 65.676 87.0238 65.676C86.1498 65.676 85.3448 65.906 84.6088 66.366C83.8881 66.8107 83.3131 67.4087 82.8838 68.16C82.4698 68.9113 82.2628 69.724 82.2628 70.598C82.2628 71.472 82.4698 72.2847 82.8838 73.036C83.3131 73.772 83.8881 74.3623 84.6088 74.807C85.3448 75.2517 86.1574 75.474 87.0468 75.474ZM98.4733 75.888C97.3386 75.888 96.3956 75.543 95.6443 74.853C94.9083 74.163 94.5403 73.2123 94.5403 72.001V61.237H95.2763V65.4H98.4503V66.044H95.2763V72.001C95.2763 73.013 95.5753 73.8103 96.1733 74.393C96.7866 74.9603 97.5533 75.244 98.4733 75.244V75.888ZM100.408 58.5H101.144V67.539C101.466 66.849 102.01 66.2817 102.777 65.837C103.559 65.377 104.349 65.147 105.146 65.147C106.603 65.147 107.722 65.5457 108.504 66.343C109.301 67.1403 109.7 68.2673 109.7 69.724V75.75H108.964V69.724C108.964 68.4667 108.627 67.5007 107.952 66.826C107.293 66.136 106.357 65.791 105.146 65.791C104.41 65.791 103.735 65.9673 103.122 66.32C102.509 66.6573 102.026 67.1327 101.673 67.746C101.32 68.344 101.144 69.0033 101.144 69.724V75.75H100.408V58.5ZM117.641 75.382C118.439 75.382 119.198 75.175 119.918 74.761C120.639 74.347 121.237 73.7797 121.712 73.059V74.232C121.145 74.8607 120.524 75.3207 119.849 75.612C119.175 75.888 118.408 76.026 117.549 76.026C116.599 76.026 115.702 75.773 114.858 75.267C114.03 74.761 113.363 74.0863 112.857 73.243C112.367 72.3997 112.121 71.5027 112.121 70.552C112.121 69.5247 112.367 68.6047 112.857 67.792C113.348 66.964 114.015 66.32 114.858 65.86C115.717 65.4 116.668 65.17 117.71 65.17C119.305 65.17 120.662 65.7987 121.781 67.056L114.559 74.186C115.065 74.6 115.556 74.9067 116.031 75.106C116.507 75.29 117.043 75.382 117.641 75.382ZM112.857 70.483C112.857 71.7557 113.279 72.8443 114.122 73.749L120.861 67.056C120.355 66.6113 119.865 66.297 119.389 66.113C118.914 65.9137 118.347 65.814 117.687 65.814C116.752 65.814 115.916 66.021 115.18 66.435C114.46 66.8337 113.892 67.3857 113.478 68.091C113.064 68.7963 112.857 69.5937 112.857 70.483ZM124.082 65.4H124.818V67.792C125.124 67.0407 125.569 66.4503 126.152 66.021C126.75 65.5917 127.424 65.377 128.176 65.377C128.651 65.377 129.134 65.4767 129.625 65.676V66.527C129.18 66.1897 128.682 66.021 128.13 66.021C127.578 66.021 127.041 66.1897 126.52 66.527C126.014 66.8643 125.6 67.3167 125.278 67.884C124.971 68.4513 124.818 69.057 124.818 69.701V75.75H124.082V65.4ZM51.1025 98.21C49.4925 98.21 48.0128 97.819 46.6635 97.037C45.3141 96.2397 44.2408 95.151 43.4435 93.771C42.6615 92.3757 42.2705 90.8117 42.2705 89.079C42.2705 87.4077 42.6768 85.882 43.4895 84.502C44.3175 83.122 45.4138 82.0333 46.7785 81.236C48.1585 80.4387 49.6228 80.04 51.1715 80.04C52.2448 80.04 53.0958 80.1397 53.7245 80.339C54.3531 80.523 55.0815 80.8527 55.9095 81.328V82.179C55.1275 81.6423 54.3991 81.2667 53.7245 81.052C53.0651 80.822 52.2371 80.707 51.2405 80.707C49.7225 80.707 48.3348 81.098 47.0775 81.88C45.8355 82.6467 44.8465 83.6817 44.1105 84.985C43.3898 86.273 43.0295 87.6607 43.0295 89.148C43.0295 90.6507 43.3975 92.046 44.1335 93.334C44.8695 94.622 45.8431 95.6493 47.0545 96.416C48.2811 97.1673 49.5998 97.543 51.0105 97.543C52.0225 97.543 52.9041 97.428 53.6555 97.198C54.4068 96.9527 55.1581 96.577 55.9095 96.071V96.922C55.1735 97.3667 54.4145 97.6887 53.6325 97.888C52.8658 98.1027 52.0225 98.21 51.1025 98.21ZM67.2283 97.75L62.9043 88.849L58.5573 97.75H57.7983L62.4673 88.136L58.6493 80.5H59.5233L62.8813 87.354L66.2163 80.5H67.0213L63.3413 88.044L68.0793 97.75H67.2283ZM77.579 98.003C76.843 98.003 76.1914 97.8803 75.624 97.635C75.0567 97.3743 74.6504 97.0447 74.405 96.646V95.427C74.6964 96.0863 75.095 96.577 75.601 96.899C76.107 97.2057 76.751 97.359 77.533 97.359C78.2844 97.359 78.89 97.129 79.35 96.669C79.81 96.1937 80.04 95.588 80.04 94.852C80.04 94.2233 79.9097 93.7403 79.649 93.403C79.3884 93.0503 78.9667 92.6977 78.384 92.345L77.51 91.839C76.8814 91.4557 76.406 91.1567 76.084 90.942C75.7774 90.712 75.532 90.459 75.348 90.183C75.164 89.8917 75.072 89.5543 75.072 89.171C75.072 88.5577 75.2867 88.067 75.716 87.699C76.1454 87.331 76.705 87.147 77.395 87.147C78.2384 87.147 78.9437 87.3387 79.511 87.722V88.734C79.0357 88.1053 78.3534 87.791 77.464 87.791C76.9734 87.791 76.5747 87.9137 76.268 88.159C75.9614 88.4043 75.808 88.7187 75.808 89.102C75.808 89.4393 75.9 89.7383 76.084 89.999C76.268 90.2443 76.521 90.4743 76.843 90.689C77.1804 90.9037 77.7324 91.2257 78.499 91.655C79.281 92.0997 79.856 92.5597 80.224 93.035C80.592 93.495 80.776 94.1007 80.776 94.852C80.776 95.8027 80.4617 96.5693 79.833 97.152C79.2197 97.7193 78.4684 98.003 77.579 98.003ZM86.7711 97.888C85.6365 97.888 84.6935 97.543 83.9421 96.853C83.2061 96.163 82.8381 95.2123 82.8381 94.001V83.237H83.5741V87.4H86.7481V88.044H83.5741V94.001C83.5741 95.013 83.8731 95.8103 84.4711 96.393C85.0845 96.9603 85.8511 97.244 86.7711 97.244V97.888ZM93.2598 98.003C91.8032 98.003 90.6762 97.6043 89.8788 96.807C89.0968 96.0097 88.7058 94.8827 88.7058 93.426V87.4H89.4418V93.426C89.4418 94.6833 89.7715 95.657 90.4308 96.347C91.1055 97.0217 92.0485 97.359 93.2598 97.359C93.9958 97.359 94.6705 97.198 95.2838 96.876C95.8972 96.5387 96.3802 96.071 96.7328 95.473C97.0855 94.875 97.2618 94.1927 97.2618 93.426V87.4H97.9978V97.75H97.2618V95.818C96.9092 96.462 96.3802 96.991 95.6748 97.405C94.9695 97.8037 94.1645 98.003 93.2598 98.003ZM105.778 98.003C104.781 98.003 103.861 97.7577 103.018 97.267C102.19 96.7763 101.531 96.117 101.04 95.289C100.549 94.461 100.304 93.5563 100.304 92.575C100.304 91.5937 100.549 90.689 101.04 89.861C101.531 89.033 102.19 88.3737 103.018 87.883C103.861 87.3923 104.781 87.147 105.778 87.147C106.744 87.147 107.664 87.4077 108.538 87.929C109.412 88.435 110.056 89.102 110.47 89.93V80.5H111.206V97.75H110.47V95.243C110.01 96.071 109.343 96.738 108.469 97.244C107.61 97.75 106.713 98.003 105.778 98.003ZM105.755 97.359C106.598 97.359 107.38 97.1443 108.101 96.715C108.837 96.2703 109.42 95.6877 109.849 94.967C110.294 94.231 110.516 93.4413 110.516 92.598C110.516 91.7547 110.294 90.965 109.849 90.229C109.42 89.493 108.837 88.9027 108.101 88.458C107.38 88.0133 106.598 87.791 105.755 87.791C104.912 87.791 104.13 88.0133 103.409 88.458C102.688 88.8873 102.113 89.47 101.684 90.206C101.255 90.942 101.04 91.7317 101.04 92.575C101.04 93.4337 101.247 94.231 101.661 94.967C102.09 95.6877 102.665 96.2703 103.386 96.715C104.122 97.1443 104.912 97.359 105.755 97.359ZM115.006 85.031C114.791 85.031 114.6 84.9543 114.431 84.801C114.278 84.6477 114.201 84.456 114.201 84.226C114.201 84.0113 114.278 83.8273 114.431 83.674C114.6 83.5207 114.791 83.444 115.006 83.444C115.221 83.444 115.405 83.5207 115.558 83.674C115.727 83.8273 115.811 84.0113 115.811 84.226C115.811 84.456 115.727 84.6477 115.558 84.801C115.405 84.9543 115.221 85.031 115.006 85.031ZM114.638 87.4H115.374V97.75H114.638V87.4ZM123.725 98.118C122.683 98.118 121.74 97.865 120.896 97.359C120.053 96.8377 119.394 96.1553 118.918 95.312C118.443 94.4533 118.205 93.5257 118.205 92.529C118.205 91.5477 118.443 90.6353 118.918 89.792C119.409 88.9487 120.068 88.2817 120.896 87.791C121.74 87.285 122.675 87.032 123.702 87.032C124.714 87.032 125.634 87.285 126.462 87.791C127.306 88.2817 127.965 88.9487 128.44 89.792C128.916 90.6353 129.153 91.5477 129.153 92.529C129.153 93.5563 128.923 94.4993 128.463 95.358C128.003 96.2013 127.359 96.876 126.531 97.382C125.719 97.8727 124.783 98.118 123.725 98.118ZM123.725 97.474C124.599 97.474 125.397 97.2517 126.117 96.807C126.838 96.3623 127.398 95.772 127.796 95.036C128.21 94.2847 128.417 93.4643 128.417 92.575C128.417 91.701 128.21 90.8883 127.796 90.137C127.382 89.3857 126.815 88.7877 126.094 88.343C125.374 87.8983 124.576 87.676 123.702 87.676C122.828 87.676 122.023 87.906 121.287 88.366C120.567 88.8107 119.992 89.4087 119.562 90.16C119.148 90.9113 118.941 91.724 118.941 92.598C118.941 93.472 119.148 94.2847 119.562 95.036C119.992 95.772 120.567 96.3623 121.287 96.807C122.023 97.2517 122.836 97.474 123.725 97.474Z" fill="#1A1A1A"/>
<circle cx="47" cy="43.75" r="4" fill="#1A1A1A"/>
<circle cx="70" cy="43.75" r="4" fill="#1A1A1A"/>
<path d="M152.776 94.886C152.776 84.694 154.18 75.386 156.988 66.962C159.9 58.642 164.424 50.114 170.56 41.378C173.368 37.426 175.344 34.514 176.488 32.642C177.736 30.666 179.088 27.754 180.544 23.906C182 19.954 182.884 15.846 183.196 11.582H141.856V20.474C141.856 21.514 141.44 22.398 140.608 23.126C139.776 23.75 138.788 24.062 137.644 24.062C136.5 24.062 135.512 23.75 134.68 23.126C133.848 22.398 133.432 21.514 133.432 20.474V7.838C133.432 5.55 134.628 4.406 137.02 4.406H188.188C190.58 4.406 191.776 5.602 191.776 7.994C191.776 16.522 190.216 23.802 187.096 29.834C185.328 33.266 183.924 35.814 182.884 37.478C181.844 39.038 179.4 42.47 175.552 47.774C171.808 53.078 168.48 59.526 165.568 67.118C162.656 74.71 161.2 83.966 161.2 94.886C161.2 95.926 160.784 96.758 159.952 97.382C159.12 98.11 158.132 98.474 156.988 98.474C155.844 98.474 154.856 98.11 154.024 97.382C153.192 96.758 152.776 95.926 152.776 94.886ZM220.022 2.846C222.726 2.846 224.078 3.938 224.078 6.122V55.418H234.374C235.414 55.418 236.246 55.782 236.87 56.51C237.598 57.238 237.962 58.122 237.962 59.162C237.962 60.202 237.598 61.086 236.87 61.814C236.246 62.438 235.414 62.75 234.374 62.75H205.358C204.318 62.75 203.434 62.438 202.706 61.814C202.082 61.086 201.77 60.202 201.77 59.162C201.77 58.122 202.082 57.238 202.706 56.51C203.434 55.782 204.318 55.418 205.358 55.418H215.654V15.95C211.806 19.59 208.634 21.41 206.138 21.41C205.098 21.41 204.214 21.098 203.486 20.474C202.862 19.85 202.55 18.862 202.55 17.51C202.55 16.158 203.278 15.17 204.734 14.546C209.31 12.57 213.158 9.346 216.278 4.874C217.318 3.522 218.566 2.846 220.022 2.846ZM292.524 55.418H302.976C304.016 55.418 304.848 55.782 305.472 56.51C306.2 57.238 306.564 58.122 306.564 59.162C306.564 60.202 306.2 61.086 305.472 61.814C304.848 62.438 304.016 62.75 302.976 62.75H292.524V94.886C292.524 95.926 292.108 96.758 291.276 97.382C290.444 98.11 289.456 98.474 288.312 98.474C287.168 98.474 286.18 98.11 285.348 97.382C284.516 96.758 284.1 95.926 284.1 94.886V62.75H247.596C245.828 62.75 244.684 62.126 244.164 60.878C243.852 60.254 243.696 59.682 243.696 59.162C243.696 58.538 243.904 57.914 244.32 57.29L274.116 5.03C274.948 3.574 275.832 2.846 276.768 2.846C277.704 2.846 278.64 3.054 279.576 3.47C280.512 3.886 281.24 4.562 281.76 5.498C282.28 6.434 282.28 7.37 281.76 8.306L254.616 55.574H284.1V45.59C284.1 44.55 284.516 43.718 285.348 43.094C286.18 42.366 287.168 42.002 288.312 42.002C289.456 42.002 290.444 42.366 291.276 43.094C292.108 43.718 292.524 44.55 292.524 45.59V55.418Z" fill="#FF0000"/>
</svg>
